<svg width="50" height="50" viewBox="0 0 50 50" fill="none" xmlns="http://www.w3.org/2000/svg">
<path d="M39.5833 43.75H10.4167C9.3116 43.75 8.25179 43.311 7.47039 42.5296C6.68899 41.7482 6.25 40.6884 6.25 39.5833V10.4167C6.25 9.3116 6.68899 8.25179 7.47039 7.47039C8.25179 6.68899 9.3116 6.25 10.4167 6.25H39.5833C40.6884 6.25 41.7482 6.68899 42.5296 7.47039C43.311 8.25179 43.75 9.3116 43.75 10.4167V39.5833C43.75 40.6884 43.311 41.7482 42.5296 42.5296C41.7482 43.311 40.6884 43.75 39.5833 43.75ZM10.4167 10.4167V39.5833H39.5833V10.4167H10.4167ZM37.5 35.4167H12.5L18.75 27.0833L20.8333 29.1667L27.0833 20.8333L37.5 35.4167ZM17.7083 22.9167C16.8795 22.9167 16.0847 22.5874 15.4986 22.0014C14.9126 21.4153 14.5833 20.6205 14.5833 19.7917C14.5833 18.9629 14.9126 18.168 15.4986 17.582C16.0847 16.9959 16.8795 16.6667 17.7083 16.6667C18.5371 16.6667 19.332 16.9959 19.918 17.582C20.5041 18.168 20.8333 18.9629 20.8333 19.7917C20.8333 20.6205 20.5041 21.4153 19.918 22.0014C19.332 22.5874 18.5371 22.9167 17.7083 22.9167Z" fill="white"/>
</svg>
