<svg width="50" height="50" viewBox="0 0 50 50" fill="none" xmlns="http://www.w3.org/2000/svg">
<path d="M45.0963 36.1167C44.3135 35.3496 43.3457 34.7986 42.2875 34.5166V15.4837C43.3457 15.2017 44.3135 14.6507 45.0963 13.8837C45.8978 13.0984 46.4768 12.1149 46.7746 11.0331C47.0724 9.95138 47.0782 8.81004 46.7915 7.7253C46.5048 6.64055 45.9358 5.65114 45.1424 4.85777C44.3491 4.0644 43.3597 3.49541 42.2749 3.20871C41.1902 2.92201 40.0488 2.92784 38.9671 3.22561C37.8853 3.52337 36.9018 4.10245 36.1165 4.90388C35.3495 5.68674 34.7985 6.65448 34.5165 7.71266H15.4836C15.2016 6.65448 14.6506 5.68674 13.8835 4.90388C13.0983 4.10245 12.1148 3.52337 11.033 3.22561C9.95126 2.92784 8.80992 2.92201 7.72517 3.20871C6.64043 3.49541 5.65102 4.0644 4.85765 4.85777C4.06428 5.65114 3.49529 6.64055 3.20859 7.7253C2.92189 8.81004 2.92772 9.95138 3.22548 11.0331C3.52325 12.1149 4.10232 13.0984 4.90375 13.8837C5.68662 14.6507 6.65436 15.2017 7.71254 15.4837V34.5166C6.65436 34.7986 5.68662 35.3496 4.90375 36.1167C4.10232 36.9019 3.52325 37.8854 3.22548 38.9672C2.92772 40.0489 2.92189 41.1903 3.20859 42.275C3.49529 43.3598 4.06428 44.3492 4.85765 45.1426C5.65102 45.9359 6.64043 46.5049 7.72517 46.7916C8.80992 47.0783 9.95126 47.0725 11.033 46.7747C12.1148 46.477 13.0983 45.8979 13.8835 45.0965C14.6506 44.3136 15.2016 43.3459 15.4836 42.2877H34.5165C34.7985 43.3459 35.3495 44.3136 36.1165 45.0965C36.9018 45.8979 37.8853 46.477 38.9671 46.7747C40.0488 47.0725 41.1902 47.0783 42.2749 46.7916C43.3597 46.5049 44.3491 45.9359 45.1424 45.1426C45.9358 44.3492 46.5048 43.3598 46.7915 42.275C47.0782 41.1903 47.0724 40.0489 46.7746 38.9672C46.4768 37.8854 45.8978 36.9019 45.0963 36.1167ZM40.625 6.35016C41.2233 6.35016 41.8082 6.52757 42.3056 6.85997C42.8031 7.19236 43.1908 7.6648 43.4198 8.21754C43.6487 8.77029 43.7086 9.37852 43.5919 9.96531C43.4752 10.5521 43.1871 11.0911 42.764 11.5142C42.341 11.9372 41.802 12.2253 41.2152 12.342C40.6284 12.4588 40.0202 12.3989 39.4674 12.1699C38.9147 11.9409 38.4422 11.5532 38.1098 11.0558C37.7775 10.5583 37.6 9.97345 37.6 9.37516C37.6 8.57288 37.9187 7.80346 38.486 7.23616C39.0533 6.66886 39.8228 6.35016 40.625 6.35016ZM6.35004 9.37516C6.35004 8.77687 6.52745 8.19202 6.85984 7.69456C7.19223 7.1971 7.66467 6.80938 8.21742 6.58042C8.77017 6.35147 9.37839 6.29156 9.96519 6.40828C10.552 6.525 11.091 6.81311 11.514 7.23616C11.9371 7.65922 12.2252 8.19822 12.3419 8.78501C12.4586 9.37181 12.3987 9.98003 12.1698 10.5328C11.9408 11.0855 11.5531 11.558 11.0556 11.8904C10.5582 12.2227 9.97333 12.4002 9.37504 12.4002C8.57276 12.4002 7.80334 12.0815 7.23604 11.5142C6.66874 10.9469 6.35004 10.1774 6.35004 9.37516ZM9.37504 43.6502C8.77675 43.6502 8.1919 43.4728 7.69444 43.1404C7.19698 42.808 6.80926 42.3355 6.5803 41.7828C6.35135 41.23 6.29144 40.6218 6.40816 40.035C6.52488 39.4482 6.81299 38.9092 7.23604 38.4862C7.65909 38.0631 8.1981 37.775 8.78489 37.6583C9.37168 37.5416 9.97991 37.6015 10.5327 37.8304C11.0854 38.0594 11.5578 38.4471 11.8902 38.9446C12.2226 39.442 12.4 40.0269 12.4 40.6252C12.4 41.4274 12.0813 42.1969 11.514 42.7642C10.9467 43.3315 10.1773 43.6502 9.37504 43.6502ZM36.151 36.1511C35.3713 36.9309 34.8083 37.9 34.517 38.9627H15.483C15.1918 37.9 14.6288 36.9309 13.8491 36.1511C13.0693 35.3714 12.1002 34.8084 11.0375 34.5172V15.4832C12.1002 15.1919 13.0693 14.629 13.8491 13.8492C14.6288 13.0694 15.1918 12.1003 15.483 11.0377H34.517C34.8083 12.1003 35.3713 13.0694 36.151 13.8492C36.9308 14.629 37.8999 15.1919 38.9625 15.4832V34.5172C37.8999 34.8084 36.9308 35.3714 36.151 36.1511ZM40.625 43.6502C40.0268 43.6502 39.4419 43.4728 38.9444 43.1404C38.447 42.808 38.0593 42.3355 37.8303 41.7828C37.6014 41.23 37.5414 40.6218 37.6582 40.035C37.7749 39.4482 38.063 38.9092 38.486 38.4862C38.9091 38.0631 39.4481 37.775 40.0349 37.6583C40.6217 37.5416 41.2299 37.6015 41.7827 37.8304C42.3354 38.0594 42.8078 38.4471 43.1402 38.9446C43.4726 39.442 43.65 40.0269 43.65 40.6252C43.65 41.4274 43.3313 42.1969 42.764 42.7642C42.1967 43.3315 41.4273 43.6502 40.625 43.6502Z" fill="white" stroke="white" stroke-width="0.2"/>
<path d="M32.8125 17.1875H17.1875V20.3125H23.4375V34.375H26.5625V20.3125H32.8125V17.1875Z" fill="white"/>
</svg>
