<svg width="50" height="50" viewBox="0 0 50 50" fill="none" xmlns="http://www.w3.org/2000/svg">
<path d="M12.7329 27.4208L12.7182 27.4478H12.6291H12.627V27.2978C12.5434 27.4511 12.4997 27.6231 12.5 27.7978V36.7873L13.9699 27.0129L22.2094 31.5086L22.2094 31.5086C22.3501 31.5853 22.4675 31.6985 22.5493 31.8363C22.6311 31.974 22.6743 32.1313 22.6743 32.2915C22.6743 32.4517 22.6311 32.609 22.5493 32.7468C22.4675 32.8845 22.3501 32.9977 22.2094 33.0744L22.2094 33.0744L13.9698 37.5703L13.9696 37.5703C13.8338 37.6447 13.6809 37.6823 13.5261 37.6796C13.3713 37.6769 13.2199 37.634 13.0867 37.555C12.9535 37.476 12.8432 37.3637 12.7666 37.2291C12.6901 37.0945 12.6498 36.9423 12.65 36.7875V36.7873L12.65 27.7978L12.65 27.7976C12.6498 27.6672 12.6782 27.5386 12.7329 27.4208ZM12.7329 27.4208L12.7608 27.3695C12.8739 27.1619 13.0648 27.0078 13.2916 26.9409C13.5182 26.874 13.7622 26.8999 13.9698 27.0128L12.7329 27.4208ZM45.9684 28.4229L45.9687 28.4229L45.9673 28.4128C45.911 28.0028 45.7082 27.6271 45.3963 27.3551C45.0844 27.0831 44.6846 26.9332 44.2708 26.9332C43.8166 26.9332 43.381 27.1136 43.0599 27.4348C42.7387 27.7559 42.5583 28.1915 42.5583 28.6457V39.0592L42.5461 39.351C42.4737 40.2246 42.0757 41.0391 41.431 41.6332C40.7856 42.2279 39.9401 42.5581 39.0625 42.5582L31.9728 42.5603L31.8791 42.5603L31.838 42.6445C31.2407 43.87 30.3466 44.9236 29.25 45.7113L28.8715 45.9832H29.3375L39.0625 45.9832L39.0665 45.9831L39.4499 45.9727V45.9728L39.4543 45.9725C41.2192 45.8724 42.879 45.1008 44.093 43.8158C45.3071 42.5309 45.9834 40.8301 45.9833 39.0623V28.6457H45.9837L45.9829 28.6354L45.9684 28.4229ZM45.9728 10.5499L45.9729 10.5499L45.9726 10.5455C45.8726 8.78058 45.1009 7.12085 43.816 5.90679C42.531 4.69273 40.8302 4.01639 39.0625 4.0165H28.6458V4.01615L28.6355 4.01686L28.423 4.03144L28.423 4.03109L28.4128 4.03249C27.983 4.09163 27.5916 4.31173 27.3178 4.6483C27.044 4.98488 26.9082 5.41285 26.9378 5.84573C26.9673 6.27861 27.1601 6.68412 27.4772 6.98033C27.7942 7.27655 28.2119 7.44137 28.6457 7.4415H28.6458H39.0593L39.3531 7.45375C40.2263 7.5266 41.0404 7.92475 41.634 8.56938C42.2283 9.21476 42.5583 10.06 42.5583 10.9373V21.354H42.5579L42.5586 21.3643L42.5732 21.5768L42.5729 21.5768L42.5743 21.587C42.6334 22.0168 42.8535 22.4082 43.1901 22.682C43.5267 22.9558 43.9546 23.0916 44.3875 23.062C44.8204 23.0325 45.2259 22.8397 45.5221 22.5226C45.8183 22.2056 45.9832 21.7879 45.9833 21.3541L45.9834 10.9373L45.9832 10.9333L45.9728 10.5499ZM21.3542 4.0165H21.3541H10.9375V4.01645L10.9334 4.01656L10.5501 4.02698L10.55 4.02691L10.5456 4.02716C8.7807 4.12724 7.12097 4.8989 5.90691 6.18384C4.69286 7.46878 4.01651 9.16957 4.01663 10.9373C4.01663 10.9373 4.01663 10.9373 4.01663 10.9373V20.6623V21.1273L4.28835 20.75C5.07831 19.6531 6.13002 18.757 7.35727 18.1597L7.44163 18.1187V18.0248V10.9405L7.45387 10.6467C7.52673 9.77345 7.92487 8.95939 8.56951 8.36576C9.21488 7.77145 10.0601 7.44154 10.9375 7.4415H21.3541V7.44186L21.3644 7.44115L21.5769 7.42657L21.5769 7.42692L21.5871 7.42552C22.0169 7.36638 22.4083 7.14628 22.6821 6.8097C22.9559 6.47312 23.0917 6.04516 23.0622 5.61228C23.0326 5.1794 22.8398 4.77389 22.5228 4.47768C22.2057 4.18146 21.7881 4.01664 21.3542 4.0165ZM27.1276 19.1267C26.2879 18.7789 25.388 18.5998 24.4791 18.5998H10.9375C9.10194 18.5998 7.3416 19.329 6.04369 20.6269C5.40103 21.2696 4.89125 22.0325 4.54344 22.8722C4.19564 23.7119 4.01663 24.6118 4.01663 25.5207V39.0623C4.01663 39.9712 4.19564 40.8712 4.54344 41.7108C4.89125 42.5505 5.40103 43.3135 6.04369 43.9561C6.68635 44.5988 7.4493 45.1086 8.28897 45.4564C9.12865 45.8042 10.0286 45.9832 10.9375 45.9832H24.4791C25.388 45.9832 26.2879 45.8042 27.1276 45.4564C27.9673 45.1086 28.7302 44.5988 29.3729 43.9561C30.0156 43.3135 30.5253 42.5505 30.8731 41.7108C31.2209 40.8712 31.4 39.9712 31.4 39.0623V25.5207C31.4 24.6118 31.2209 23.7119 30.8731 22.8722C30.5253 22.0325 30.0156 21.2696 29.3729 20.6269C28.7302 19.9842 27.9673 19.4745 27.1276 19.1267Z" fill="white" stroke="white" stroke-width="0.3"/>
</svg>
