<svg width="30" height="30" viewBox="0 0 30 30" fill="none" xmlns="http://www.w3.org/2000/svg">
<path d="M6.25 5.75H5.75V6.25V23.75V24.25H6.25H23.75H24.25V23.75V6.25V5.75H23.75H6.25ZM16.2402 13.3465L21.5284 20.75H8.5L11.3041 17.0112L12.1464 17.8536L12.5541 18.2612L12.9 17.8L16.2402 13.3465ZM23.75 25.75H6.25C5.71957 25.75 5.21086 25.5393 4.83579 25.1642C4.46071 24.7891 4.25 24.2804 4.25 23.75V6.25C4.25 5.71957 4.46071 5.21086 4.83579 4.83579C5.21086 4.46071 5.71957 4.25 6.25 4.25H23.75C24.2804 4.25 24.7891 4.46071 25.1642 4.83579C25.5393 5.21086 25.75 5.71957 25.75 6.25V23.75C25.75 24.2804 25.5393 24.7891 25.1642 25.1642C24.7891 25.5393 24.2804 25.75 23.75 25.75ZM10.625 13.25C10.2603 13.25 9.91059 13.1051 9.65273 12.8473C9.39487 12.5894 9.25 12.2397 9.25 11.875C9.25 11.5103 9.39487 11.1606 9.65273 10.9027C9.91059 10.6449 10.2603 10.5 10.625 10.5C10.9897 10.5 11.3394 10.6449 11.5973 10.9027C11.8551 11.1606 12 11.5103 12 11.875C12 12.2397 11.8551 12.5894 11.5973 12.8473C11.3394 13.1051 10.9897 13.25 10.625 13.25Z" fill="black" stroke="black"/>
</svg>
