<svg width="30" height="30" viewBox="0 0 30 30" fill="none" xmlns="http://www.w3.org/2000/svg">
<path d="M3 24.2909V5.21021L10.9567 7.86553L11.169 7.93636L11.3632 7.82527L19.9423 2.91893L27 5.74225V24.8576L20.282 22.1695L20.0577 22.0798L19.848 22.1997L11.3318 27.0702L3 24.2909ZM5.15754 7.51546L4.5 7.29715V7.98999V22.8487V23.2091L4.84192 23.3231L9.84192 24.9893L10.5 25.2086V24.515V9.64999V9.28916L10.1575 9.17546L5.15754 7.51546ZM12.2517 9.04098L12 9.18497V9.47499V24.1V24.962L12.7483 24.534L17.7483 21.674L18 21.53V21.24V6.61499H17.5L17.2517 6.18098L12.2517 9.04098ZM20.282 4.66828L20.0523 4.57634L19.8398 4.70325L19.7436 4.76075L19.5 4.90626V5.18999V19.9037V20.2423L19.8143 20.368L24.8143 22.368L25.5 22.6423V21.9037V7.09499V6.75654L25.1858 6.63078L20.282 4.66828Z" fill="url(#paint0_linear_503:155)" stroke="url(#paint1_linear_503:155)"/>
<defs>
<linearGradient id="paint0_linear_503:155" x1="2.5" y1="14.99" x2="30.1934" y2="15.2183" gradientUnits="userSpaceOnUse">
<stop stop-color="#6A81E6"/>
<stop offset="0.33664" stop-color="#4765E4"/>
<stop offset="0.633862" stop-color="#2F52E9"/>
<stop offset="1" stop-color="#1537C6"/>
</linearGradient>
<linearGradient id="paint1_linear_503:155" x1="2.5" y1="14.99" x2="30.1934" y2="15.2183" gradientUnits="userSpaceOnUse">
<stop stop-color="#6A81E6"/>
<stop offset="0.33664" stop-color="#4765E4"/>
<stop offset="0.633862" stop-color="#2F52E9"/>
<stop offset="1" stop-color="#1537C6"/>
</linearGradient>
</defs>
</svg>
