<svg width="30" height="30" viewBox="0 0 30 30" fill="none" xmlns="http://www.w3.org/2000/svg">
<path d="M8.3377 21.6623C7.87213 21.1967 7.29526 20.8586 6.6625 20.6798V9.32019C7.29526 9.14134 7.87213 8.80326 8.3377 8.3377C8.80326 7.87213 9.14134 7.29526 9.32019 6.6625H20.6798C20.8586 7.29526 21.1967 7.87213 21.6623 8.3377C22.1279 8.80326 22.7047 9.14134 23.3375 9.32019V20.6798C22.7047 20.8586 22.1279 21.1967 21.6623 21.6623C21.1967 22.1279 20.8586 22.7047 20.6798 23.3375H9.32019C9.14134 22.7047 8.80326 22.1279 8.3377 21.6623ZM27.0858 21.6413C26.6184 21.1835 26.0425 20.8525 25.4125 20.6792V9.32075C26.0425 9.14746 26.6184 8.81654 27.0858 8.35867C27.5717 7.88259 27.9228 7.28627 28.1033 6.6304C28.2838 5.97453 28.2874 5.28254 28.1135 4.62486C27.9397 3.96718 27.5947 3.3673 27.1137 2.88628C26.6327 2.40526 26.0328 2.06028 25.3751 1.88646C24.7175 1.71263 24.0255 1.71616 23.3696 1.8967C22.7137 2.07724 22.1174 2.42833 21.6413 2.91423C21.1835 3.38155 20.8525 3.95752 20.6792 4.5875H9.32075C9.14746 3.95752 8.81654 3.38155 8.35867 2.91423C7.88259 2.42833 7.28627 2.07724 6.6304 1.8967C5.97453 1.71616 5.28254 1.71263 4.62486 1.88646C3.96718 2.06028 3.3673 2.40526 2.88628 2.88628C2.40526 3.3673 2.06028 3.96718 1.88646 4.62486C1.71263 5.28254 1.71616 5.97453 1.8967 6.6304C2.07724 7.28627 2.42833 7.88259 2.91423 8.35867C3.38155 8.81654 3.95752 9.14746 4.5875 9.32075V20.6792C3.95752 20.8525 3.38155 21.1835 2.91423 21.6413C2.42833 22.1174 2.07724 22.7137 1.8967 23.3696C1.71616 24.0255 1.71263 24.7175 1.88646 25.3751C2.06028 26.0328 2.40526 26.6327 2.88628 27.1137C3.3673 27.5947 3.96718 27.9397 4.62486 28.1135C5.28254 28.2874 5.97453 28.2838 6.6304 28.1033C7.28627 27.9228 7.88259 27.5717 8.35867 27.0858C8.81654 26.6184 9.14746 26.0425 9.32075 25.4125H20.6792C20.8525 26.0425 21.1835 26.6184 21.6413 27.0858C22.1174 27.5717 22.7137 27.9228 23.3696 28.1033C24.0255 28.2838 24.7175 28.2874 25.3751 28.1135C26.0328 27.9397 26.6327 27.5947 27.1137 27.1137C27.5947 26.6327 27.9397 26.0328 28.1135 25.3751C28.2874 24.7175 28.2838 24.0255 28.1033 23.3696C27.9228 22.7137 27.5717 22.1174 27.0858 21.6413ZM24.375 3.85C24.7261 3.85 25.0692 3.9541 25.3611 4.14914C25.653 4.34418 25.8805 4.6214 26.0149 4.94573C26.1492 5.27007 26.1844 5.62697 26.1159 5.97128C26.0474 6.3156 25.8783 6.63187 25.6301 6.88011C25.3819 7.12835 25.0656 7.2974 24.7213 7.36589C24.377 7.43438 24.0201 7.39923 23.6957 7.26488C23.3714 7.13054 23.0942 6.90303 22.8991 6.61114C22.7041 6.31924 22.6 5.97606 22.6 5.625C22.6 5.15424 22.787 4.70276 23.1199 4.36988C23.4528 4.03701 23.9042 3.85 24.375 3.85ZM3.85 5.625C3.85 5.27394 3.9541 4.93076 4.14914 4.63886C4.34418 4.34696 4.6214 4.11946 4.94573 3.98511C5.27007 3.85077 5.62697 3.81562 5.97128 3.8841C6.3156 3.95259 6.63187 4.12165 6.88011 4.36988C7.12835 4.61812 7.2974 4.9344 7.36589 5.27871C7.43438 5.62303 7.39923 5.97992 7.26488 6.30426C7.13054 6.6286 6.90303 6.90582 6.61114 7.10086C6.31924 7.2959 5.97606 7.4 5.625 7.4C5.15424 7.4 4.70276 7.21299 4.36988 6.88011C4.03701 6.54724 3.85 6.09576 3.85 5.625ZM5.625 26.15C5.27394 26.15 4.93076 26.0459 4.63886 25.8509C4.34696 25.6558 4.11946 25.3786 3.98511 25.0543C3.85077 24.7299 3.81562 24.373 3.8841 24.0287C3.95259 23.6844 4.12165 23.3681 4.36988 23.1199C4.61812 22.8716 4.9344 22.7026 5.27871 22.6341C5.62303 22.5656 5.97992 22.6008 6.30426 22.7351C6.6286 22.8695 6.90582 23.097 7.10086 23.3889C7.2959 23.6808 7.4 24.0239 7.4 24.375C7.4 24.8458 7.21299 25.2972 6.88011 25.6301C6.54724 25.963 6.09576 26.15 5.625 26.15ZM24.375 26.15C24.0239 26.15 23.6808 26.0459 23.3889 25.8509C23.097 25.6558 22.8695 25.3786 22.7351 25.0543C22.6008 24.7299 22.5656 24.373 22.6341 24.0287C22.7026 23.6844 22.8716 23.3681 23.1199 23.1199C23.3681 22.8716 23.6844 22.7026 24.0287 22.6341C24.373 22.5656 24.7299 22.6008 25.0543 22.7351C25.3786 22.8695 25.6558 23.097 25.8509 23.3889C26.0459 23.6808 26.15 24.0239 26.15 24.375C26.15 24.8458 25.963 25.2972 25.6301 25.6301C25.2972 25.963 24.8458 26.15 24.375 26.15Z" fill="url(#paint0_linear_503:147)" stroke="url(#paint1_linear_503:147)" stroke-width="0.2"/>
<path d="M14.5625 12.1875V11.6875H14.0625H10.8125V10.8125H19.1875V11.6875H15.9375H15.4375V12.1875V20.125H14.5625V12.1875Z" fill="url(#paint2_linear_503:147)" stroke="url(#paint3_linear_503:147)"/>
<defs>
<linearGradient id="paint0_linear_503:147" x1="1.85864" y1="15" x2="30.9729" y2="15.2425" gradientUnits="userSpaceOnUse">
<stop stop-color="#6A81E6"/>
<stop offset="0.33664" stop-color="#4765E4"/>
<stop offset="0.633862" stop-color="#2F52E9"/>
<stop offset="1" stop-color="#1537C6"/>
</linearGradient>
<linearGradient id="paint1_linear_503:147" x1="1.85864" y1="15" x2="30.9729" y2="15.2425" gradientUnits="userSpaceOnUse">
<stop stop-color="#6A81E6"/>
<stop offset="0.33664" stop-color="#4765E4"/>
<stop offset="0.633862" stop-color="#2F52E9"/>
<stop offset="1" stop-color="#1537C6"/>
</linearGradient>
<linearGradient id="paint2_linear_503:147" x1="10.3125" y1="15.4688" x2="20.6976" y2="15.5474" gradientUnits="userSpaceOnUse">
<stop stop-color="#6A81E6"/>
<stop offset="0.33664" stop-color="#4765E4"/>
<stop offset="0.633862" stop-color="#2F52E9"/>
<stop offset="1" stop-color="#1537C6"/>
</linearGradient>
<linearGradient id="paint3_linear_503:147" x1="10.3125" y1="15.4688" x2="20.6976" y2="15.5474" gradientUnits="userSpaceOnUse">
<stop stop-color="#6A81E6"/>
<stop offset="0.33664" stop-color="#4765E4"/>
<stop offset="0.633862" stop-color="#2F52E9"/>
<stop offset="1" stop-color="#1537C6"/>
</linearGradient>
</defs>
</svg>
