<svg width="30" height="30" viewBox="0 0 30 30" fill="none" xmlns="http://www.w3.org/2000/svg">
<path d="M7.65 16.6786V16.6788V22.0725V22.0726C7.64994 22.1551 7.67136 22.2362 7.71215 22.3079C7.75295 22.3796 7.81171 22.4394 7.88265 22.4815C7.95359 22.5236 8.03427 22.5465 8.11674 22.5479C8.19921 22.5493 8.28064 22.5293 8.353 22.4897L8.35315 22.4896L13.2969 19.7921L13.297 19.7921C13.3719 19.7512 13.4344 19.6909 13.478 19.6175C13.5216 19.5441 13.5446 19.4604 13.5446 19.375C13.5446 19.2896 13.5216 19.2059 13.478 19.1325C13.4344 19.0591 13.3719 18.9988 13.297 18.958L13.2969 18.9579L8.35332 16.2605L7.65 16.6786ZM7.65 16.6786C7.64991 16.6097 7.66477 16.5418 7.69341 16.4795L7.70922 16.4505M7.65 16.6786L7.70922 16.4505M7.70922 16.4505C7.76947 16.3399 7.87116 16.2578 7.99194 16.2222C8.11266 16.1866 8.24257 16.2003 8.35315 16.2604L7.70922 16.4505ZM27.6409 17.0497L27.6412 17.0497L27.6399 17.0396C27.6041 16.7792 27.4753 16.5406 27.2773 16.3679C27.0792 16.1952 26.8253 16.1 26.5625 16.1C26.2741 16.1 25.9975 16.2146 25.7935 16.4185C25.5896 16.6225 25.475 16.8991 25.475 17.1875V23.4344L25.4678 23.6069C25.4253 24.1156 25.1935 24.5899 24.818 24.9359C24.4418 25.2825 23.949 25.475 23.4375 25.475H23.4375L19.1837 25.4763L19.09 25.4763L19.0489 25.5605C18.6949 26.2868 18.165 26.9113 17.515 27.3782L17.1365 27.65H17.6025H23.4375V27.6501L23.4416 27.6499L23.6716 27.6437L23.6716 27.6438L23.676 27.6435C24.7503 27.5826 25.7605 27.1129 26.4994 26.3308C27.2384 25.5487 27.6501 24.5135 27.65 23.4375V17.1875H27.6504L27.6497 17.1772L27.6409 17.0497ZM27.6437 6.32843L27.6438 6.32842L27.6435 6.32401C27.5826 5.24975 27.1129 4.23952 26.3308 3.50056C25.5487 2.7616 24.5135 2.34993 23.4375 2.35H17.1875V2.34965L17.1772 2.35035L17.0497 2.3591L17.0497 2.35875L17.0396 2.36015C16.7666 2.39771 16.5181 2.53748 16.3442 2.75122C16.1703 2.96496 16.084 3.23673 16.1028 3.51162C16.1216 3.78652 16.244 4.04403 16.4454 4.23214C16.6467 4.42025 16.9119 4.52492 17.1875 4.525H17.1875H23.4344L23.6081 4.53224C24.1166 4.57498 24.5906 4.80696 24.9363 5.18237C25.2827 5.55852 25.475 6.05116 25.475 6.5625V12.8125H25.4746L25.4754 12.8228L25.4841 12.9503L25.4838 12.9503L25.4852 12.9604C25.5227 13.2334 25.6625 13.4819 25.8762 13.6558C26.09 13.8297 26.3617 13.916 26.6366 13.8972C26.9115 13.8784 27.169 13.756 27.3571 13.5546C27.5452 13.3533 27.6499 13.0881 27.65 12.8125V12.8125V6.5625H27.6501L27.6499 6.55843L27.6437 6.32843ZM12.8125 2.35H12.8125H6.5625V2.34994L6.55843 2.35006L6.32843 2.35631L6.32842 2.35624L6.32401 2.35649C5.24975 2.41741 4.23952 2.88709 3.50056 3.6692C2.7616 4.4513 2.34993 5.48652 2.35 6.5625C2.35 6.5625 2.35 6.56251 2.35 6.56251V12.3975V12.8625L2.62172 12.4852C3.09001 11.8349 3.7134 11.3038 4.44064 10.9499L4.525 10.9088V10.815V6.56563L4.53224 6.39185C4.57498 5.88338 4.80696 5.4094 5.18237 5.06369C5.55852 4.71731 6.05116 4.52502 6.5625 4.525H12.8125V4.52535L12.8228 4.52465L12.9503 4.5159L12.9503 4.51625L12.9604 4.51485C13.2334 4.47729 13.4819 4.33752 13.6558 4.12378C13.8297 3.91004 13.916 3.63827 13.8972 3.36338C13.8784 3.08848 13.756 2.83097 13.5546 2.64286C13.3533 2.45475 13.0881 2.35008 12.8125 2.35ZM16.2996 11.4207C15.7885 11.209 15.2407 11.1 14.6875 11.1H6.5625C5.44528 11.1 4.37381 11.5438 3.58381 12.3338C3.19265 12.725 2.88236 13.1894 2.67066 13.7004C2.45896 14.2115 2.35 14.7593 2.35 15.3125V23.4375C2.35 23.9907 2.45896 24.5385 2.67066 25.0496C2.88236 25.5606 3.19265 26.025 3.58381 26.4162C3.97498 26.8074 4.43936 27.1176 4.95045 27.3293C5.46153 27.541 6.00931 27.65 6.5625 27.65H14.6875C15.2407 27.65 15.7885 27.541 16.2996 27.3293C16.8106 27.1176 17.275 26.8074 17.6662 26.4162C18.0574 26.025 18.3676 25.5606 18.5793 25.0496C18.791 24.5385 18.9 23.9907 18.9 23.4375V15.3125C18.9 14.7593 18.791 14.2115 18.5793 13.7004C18.3676 13.1894 18.0574 12.725 17.6662 12.3338C17.275 11.9426 16.8106 11.6324 16.2996 11.4207Z" fill="url(#paint0_linear_503:153)" stroke="url(#paint1_linear_503:153)" stroke-width="0.3"/>
<defs>
<linearGradient id="paint0_linear_503:153" x1="2.5" y1="15" x2="30.1934" y2="15.2306" gradientUnits="userSpaceOnUse">
<stop stop-color="#6A81E6"/>
<stop offset="0.33664" stop-color="#4765E4"/>
<stop offset="0.633862" stop-color="#2F52E9"/>
<stop offset="1" stop-color="#1537C6"/>
</linearGradient>
<linearGradient id="paint1_linear_503:153" x1="2.5" y1="15" x2="30.1934" y2="15.2306" gradientUnits="userSpaceOnUse">
<stop stop-color="#6A81E6"/>
<stop offset="0.33664" stop-color="#4765E4"/>
<stop offset="0.633862" stop-color="#2F52E9"/>
<stop offset="1" stop-color="#1537C6"/>
</linearGradient>
</defs>
</svg>
