<svg width="21" height="18" viewBox="0 0 21 18" fill="none" xmlns="http://www.w3.org/2000/svg">
<path fill-rule="evenodd" clip-rule="evenodd" d="M0 9C0 8.65907 0.135435 8.3321 0.376509 8.09103C0.617584 7.84995 0.944551 7.71452 1.28548 7.71452H16.1791L10.6592 2.19723C10.4178 1.95585 10.2822 1.62847 10.2822 1.28711C10.2822 0.945745 10.4178 0.618364 10.6592 0.376985C10.9006 0.135606 11.228 0 11.5693 0C11.9107 0 12.2381 0.135606 12.4795 0.376985L20.1924 8.08988C20.3121 8.20929 20.407 8.35114 20.4719 8.50732C20.5367 8.66349 20.57 8.83091 20.57 9C20.57 9.16909 20.5367 9.33651 20.4719 9.49268C20.407 9.64886 20.3121 9.79071 20.1924 9.91012L12.4795 17.623C12.2381 17.8644 11.9107 18 11.5693 18C11.228 18 10.9006 17.8644 10.6592 17.623C10.4178 17.3816 10.2822 17.0543 10.2822 16.7129C10.2822 16.3715 10.4178 16.0442 10.6592 15.8028L16.1791 10.2855H1.28548C0.944551 10.2855 0.617584 10.15 0.376509 9.90897C0.135435 9.6679 0 9.34093 0 9Z" fill="#1E46F2"/>
</svg>
