<svg width="1488" height="421" viewBox="0 0 1488 421" fill="none" xmlns="http://www.w3.org/2000/svg">
<path fill-rule="evenodd" clip-rule="evenodd" d="M1486 189C1486 196.383 1481.36 203.956 1471.65 211.613C1469.36 213.416 1466.81 215.209 1464 216.989V219.349C1479.66 209.656 1488 199.485 1488 189C1488 122.726 1154.9 69 744 69C333.1 69 0 122.726 0 189C0 199.485 8.33696 209.656 24 219.349V216.989C21.1911 215.209 18.6406 213.416 16.3535 211.613C6.63855 203.956 2 196.383 2 189C2 181.617 6.63855 174.044 16.3535 166.387C26.0355 158.755 40.4387 151.306 59.1798 144.159C96.6407 129.874 150.964 116.971 218.231 106.122C352.734 84.4276 538.623 71 744 71C949.377 71 1135.27 84.4276 1269.77 106.122C1337.04 116.971 1391.36 129.874 1428.82 144.159C1447.56 151.306 1461.96 158.755 1471.65 166.387C1481.36 174.044 1486 181.617 1486 189Z" fill="#E8E8E8"/>
<g filter="url(#filter0_b)">
<circle cx="201.5" cy="107.5" r="35.5" fill="white" fill-opacity="0.6"/>
<circle cx="201.5" cy="107.5" r="34" stroke="#E8E8E8" stroke-width="3"/>
</g>
<circle cx="201.5" cy="107.5" r="12.5" fill="#2A3F41"/>
<g filter="url(#filter1_b)">
<circle cx="1285.5" cy="107.5" r="35.5" fill="white" fill-opacity="0.6"/>
<circle cx="1285.5" cy="107.5" r="34" stroke="#E8E8E8" stroke-width="3"/>
</g>
<circle cx="1285.5" cy="107.5" r="12.5" fill="#2A3F41"/>
<g filter="url(#filter2_bd)">
<circle cx="472.5" cy="75.5" r="44.5" fill="white"/>
<circle cx="472.5" cy="75.5" r="43" stroke="url(#paint0_linear)" stroke-width="3"/>
</g>
<circle cx="472.5" cy="75.5" r="29.4577" fill="url(#paint1_linear)"/>
<g filter="url(#filter3_b)">
<circle cx="1014.5" cy="75.5" r="35.5" fill="white" fill-opacity="0.6"/>
<circle cx="1014.5" cy="75.5" r="34" stroke="#E8E8E8" stroke-width="3"/>
</g>
<circle cx="1014.5" cy="75.5" r="12.5" fill="#2A3F41"/>
<g filter="url(#filter4_b)">
<circle cx="743.5" cy="71.5" r="35.5" fill="white" fill-opacity="0.6"/>
<circle cx="743.5" cy="71.5" r="34" stroke="#E8E8E8" stroke-width="3"/>
</g>
<circle cx="743.5" cy="71.5" r="12.5" fill="#2A3F41"/>
<path fill-rule="evenodd" clip-rule="evenodd" d="M2.00001 301C2.00001 293.617 6.63856 286.044 16.3535 278.386C18.6406 276.584 21.1912 274.791 24 273.011L24 270.651C8.33693 280.344 1.14073e-05 290.515 1.04907e-05 301C4.69686e-06 367.274 333.1 421 744 421C1154.9 421 1488 367.274 1488 301C1488 290.515 1479.66 280.345 1464 270.651L1464 273.011C1466.81 274.791 1469.36 276.584 1471.65 278.387C1481.36 286.044 1486 293.618 1486 301C1486 308.383 1481.36 315.956 1471.65 323.614C1461.96 331.245 1447.56 338.694 1428.82 345.841C1391.36 360.126 1337.04 373.029 1269.77 383.878C1135.27 405.572 949.377 419 744 419C538.623 419 352.734 405.572 218.231 383.878C150.964 373.029 96.6408 360.126 59.1798 345.841C40.4386 338.694 26.0355 331.245 16.3535 323.613C6.63856 315.956 2.00001 308.382 2.00001 301Z" fill="#E8E8E8"/>
<path d="M442.212 238H439.704L432.158 226.582V238H429.65V222.688H432.158L439.704 234.084V222.688H442.212V238Z" fill="black"/>
<path d="M456.615 231.642C456.615 232.097 456.586 232.507 456.527 232.874H447.265C447.339 233.842 447.698 234.619 448.343 235.206C448.989 235.793 449.781 236.086 450.719 236.086C452.069 236.086 453.022 235.521 453.579 234.392H456.285C455.919 235.507 455.251 236.423 454.283 237.142C453.33 237.846 452.142 238.198 450.719 238.198C449.561 238.198 448.519 237.941 447.595 237.428C446.686 236.9 445.967 236.167 445.439 235.228C444.926 234.275 444.669 233.175 444.669 231.928C444.669 230.681 444.919 229.589 445.417 228.65C445.931 227.697 446.642 226.963 447.551 226.45C448.475 225.937 449.531 225.68 450.719 225.68C451.863 225.68 452.883 225.929 453.777 226.428C454.672 226.927 455.369 227.631 455.867 228.54C456.366 229.435 456.615 230.469 456.615 231.642ZM453.997 230.85C453.983 229.926 453.653 229.185 453.007 228.628C452.362 228.071 451.563 227.792 450.609 227.792C449.744 227.792 449.003 228.071 448.387 228.628C447.771 229.171 447.405 229.911 447.287 230.85H453.997Z" fill="black"/>
<path d="M458.248 231.884C458.248 230.667 458.497 229.589 458.996 228.65C459.509 227.711 460.198 226.985 461.064 226.472C461.944 225.944 462.919 225.68 463.99 225.68C464.928 225.68 465.757 225.871 466.476 226.252C467.209 226.633 467.774 227.095 468.17 227.638V225.878H470.7V243.764H468.17V236.24C467.774 236.783 467.202 237.245 466.454 237.626C465.706 238.007 464.855 238.198 463.902 238.198C462.86 238.198 461.907 237.934 461.042 237.406C460.191 236.863 459.509 236.115 458.996 235.162C458.497 234.194 458.248 233.101 458.248 231.884ZM468.17 231.928C468.17 231.092 467.994 230.366 467.642 229.75C467.304 229.134 466.857 228.665 466.3 228.342C465.742 228.019 465.141 227.858 464.496 227.858C463.85 227.858 463.249 228.019 462.692 228.342C462.134 228.65 461.68 229.112 461.328 229.728C460.99 230.329 460.822 231.048 460.822 231.884C460.822 232.72 460.99 233.453 461.328 234.084C461.68 234.715 462.134 235.199 462.692 235.536C463.264 235.859 463.865 236.02 464.496 236.02C465.141 236.02 465.742 235.859 466.3 235.536C466.857 235.213 467.304 234.744 467.642 234.128C467.994 233.497 468.17 232.764 468.17 231.928Z" fill="black"/>
<path d="M484.972 225.878V238H482.464V236.57C482.068 237.069 481.547 237.465 480.902 237.758C480.271 238.037 479.596 238.176 478.878 238.176C477.924 238.176 477.066 237.978 476.304 237.582C475.556 237.186 474.962 236.599 474.522 235.822C474.096 235.045 473.884 234.106 473.884 233.006V225.878H476.37V232.632C476.37 233.717 476.641 234.553 477.184 235.14C477.726 235.712 478.467 235.998 479.406 235.998C480.344 235.998 481.085 235.712 481.628 235.14C482.185 234.553 482.464 233.717 482.464 232.632V225.878H484.972Z" fill="black"/>
<path d="M499.391 231.642C499.391 232.097 499.362 232.507 499.303 232.874H490.041C490.114 233.842 490.473 234.619 491.119 235.206C491.764 235.793 492.556 236.086 493.495 236.086C494.844 236.086 495.797 235.521 496.355 234.392H499.061C498.694 235.507 498.027 236.423 497.059 237.142C496.105 237.846 494.917 238.198 493.495 238.198C492.336 238.198 491.295 237.941 490.371 237.428C489.461 236.9 488.743 236.167 488.215 235.228C487.701 234.275 487.445 233.175 487.445 231.928C487.445 230.681 487.694 229.589 488.193 228.65C488.706 227.697 489.417 226.963 490.327 226.45C491.251 225.937 492.307 225.68 493.495 225.68C494.639 225.68 495.658 225.929 496.553 226.428C497.448 226.927 498.144 227.631 498.643 228.54C499.141 229.435 499.391 230.469 499.391 231.642ZM496.773 230.85C496.758 229.926 496.428 229.185 495.783 228.628C495.137 228.071 494.338 227.792 493.385 227.792C492.519 227.792 491.779 228.071 491.163 228.628C490.547 229.171 490.18 229.911 490.063 230.85H496.773Z" fill="black"/>
<path d="M504.609 234.986L501.947 241.058H500.319L501.881 234.986H504.609Z" fill="black"/>
<path d="M511.679 231.884C511.679 230.667 511.929 229.589 512.427 228.65C512.941 227.711 513.63 226.985 514.495 226.472C515.375 225.944 516.343 225.68 517.399 225.68C518.353 225.68 519.181 225.871 519.885 226.252C520.604 226.619 521.176 227.081 521.601 227.638V225.878H524.131V238H521.601V236.196C521.176 236.768 520.597 237.245 519.863 237.626C519.13 238.007 518.294 238.198 517.355 238.198C516.314 238.198 515.361 237.934 514.495 237.406C513.63 236.863 512.941 236.115 512.427 235.162C511.929 234.194 511.679 233.101 511.679 231.884ZM521.601 231.928C521.601 231.092 521.425 230.366 521.073 229.75C520.736 229.134 520.289 228.665 519.731 228.342C519.174 228.019 518.573 227.858 517.927 227.858C517.282 227.858 516.681 228.019 516.123 228.342C515.566 228.65 515.111 229.112 514.759 229.728C514.422 230.329 514.253 231.048 514.253 231.884C514.253 232.72 514.422 233.453 514.759 234.084C515.111 234.715 515.566 235.199 516.123 235.536C516.695 235.859 517.297 236.02 517.927 236.02C518.573 236.02 519.174 235.859 519.731 235.536C520.289 235.213 520.736 234.744 521.073 234.128C521.425 233.497 521.601 232.764 521.601 231.928Z" fill="black"/>
<path d="M538.398 238.198C537.254 238.198 536.22 237.941 535.296 237.428C534.372 236.9 533.646 236.167 533.118 235.228C532.59 234.275 532.326 233.175 532.326 231.928C532.326 230.696 532.598 229.603 533.14 228.65C533.683 227.697 534.424 226.963 535.362 226.45C536.301 225.937 537.35 225.68 538.508 225.68C539.667 225.68 540.716 225.937 541.654 226.45C542.593 226.963 543.334 227.697 543.876 228.65C544.419 229.603 544.69 230.696 544.69 231.928C544.69 233.16 544.412 234.253 543.854 235.206C543.297 236.159 542.534 236.9 541.566 237.428C540.613 237.941 539.557 238.198 538.398 238.198ZM538.398 236.02C539.044 236.02 539.645 235.866 540.202 235.558C540.774 235.25 541.236 234.788 541.588 234.172C541.94 233.556 542.116 232.808 542.116 231.928C542.116 231.048 541.948 230.307 541.61 229.706C541.273 229.09 540.826 228.628 540.268 228.32C539.711 228.012 539.11 227.858 538.464 227.858C537.819 227.858 537.218 228.012 536.66 228.32C536.118 228.628 535.685 229.09 535.362 229.706C535.04 230.307 534.878 231.048 534.878 231.928C534.878 233.233 535.208 234.245 535.868 234.964C536.543 235.668 537.386 236.02 538.398 236.02Z" fill="black"/>
<path d="M549.678 227.638C550.044 227.022 550.528 226.545 551.13 226.208C551.746 225.856 552.472 225.68 553.308 225.68V228.276H552.67C551.687 228.276 550.939 228.525 550.425 229.024C549.927 229.523 549.678 230.388 549.678 231.62V238H547.17V225.878H549.678V227.638Z" fill="black"/>
<path d="M554.777 231.928C554.777 230.681 555.026 229.589 555.525 228.65C556.038 227.697 556.742 226.963 557.637 226.45C558.532 225.937 559.558 225.68 560.717 225.68C562.184 225.68 563.394 226.032 564.347 226.736C565.315 227.425 565.968 228.415 566.305 229.706H563.599C563.379 229.105 563.027 228.635 562.543 228.298C562.059 227.961 561.45 227.792 560.717 227.792C559.69 227.792 558.869 228.159 558.253 228.892C557.652 229.611 557.351 230.623 557.351 231.928C557.351 233.233 557.652 234.253 558.253 234.986C558.869 235.719 559.69 236.086 560.717 236.086C562.169 236.086 563.13 235.448 563.599 234.172H566.305C565.953 235.404 565.293 236.387 564.325 237.12C563.357 237.839 562.154 238.198 560.717 238.198C559.558 238.198 558.532 237.941 557.637 237.428C556.742 236.9 556.038 236.167 555.525 235.228C555.026 234.275 554.777 233.175 554.777 231.928Z" fill="black"/>
<path d="M570.08 224.272C569.626 224.272 569.244 224.118 568.936 223.81C568.628 223.502 568.474 223.121 568.474 222.666C568.474 222.211 568.628 221.83 568.936 221.522C569.244 221.214 569.626 221.06 570.08 221.06C570.52 221.06 570.894 221.214 571.202 221.522C571.51 221.83 571.664 222.211 571.664 222.666C571.664 223.121 571.51 223.502 571.202 223.81C570.894 224.118 570.52 224.272 570.08 224.272ZM571.312 225.878V238H568.804V225.878H571.312Z" fill="black"/>
<path d="M591.298 225.878V238H588.79V236.57C588.394 237.069 587.873 237.465 587.228 237.758C586.597 238.037 585.923 238.176 585.204 238.176C584.251 238.176 583.393 237.978 582.63 237.582C581.882 237.186 581.288 236.599 580.848 235.822C580.423 235.045 580.21 234.106 580.21 233.006V225.878H582.696V232.632C582.696 233.717 582.967 234.553 583.51 235.14C584.053 235.712 584.793 235.998 585.732 235.998C586.671 235.998 587.411 235.712 587.954 235.14C588.511 234.553 588.79 233.717 588.79 232.632V225.878H591.298Z" fill="black"/>
<path d="M597.533 227.924V234.634C597.533 235.089 597.636 235.419 597.841 235.624C598.061 235.815 598.428 235.91 598.941 235.91H600.481V238H598.501C597.372 238 596.506 237.736 595.905 237.208C595.304 236.68 595.003 235.822 595.003 234.634V227.924H593.573V225.878H595.003V222.864H597.533V225.878H600.481V227.924H597.533Z" fill="black"/>
<path d="M611.433 227.924V234.634C611.433 235.089 611.536 235.419 611.741 235.624C611.961 235.815 612.328 235.91 612.841 235.91H614.381V238H612.401C611.272 238 610.407 237.736 609.805 237.208C609.204 236.68 608.903 235.822 608.903 234.634V227.924H607.473V225.878H608.903V222.864H611.433V225.878H614.381V227.924H611.433Z" fill="black"/>
<path d="M617.969 224.272C617.514 224.272 617.133 224.118 616.825 223.81C616.517 223.502 616.363 223.121 616.363 222.666C616.363 222.211 616.517 221.83 616.825 221.522C617.133 221.214 617.514 221.06 617.969 221.06C618.409 221.06 618.783 221.214 619.091 221.522C619.399 221.83 619.553 222.211 619.553 222.666C619.553 223.121 619.399 223.502 619.091 223.81C618.783 224.118 618.409 224.272 617.969 224.272ZM619.201 225.878V238H616.693V225.878H619.201Z" fill="black"/>
<path d="M628.61 225.68C629.563 225.68 630.414 225.878 631.162 226.274C631.924 226.67 632.518 227.257 632.944 228.034C633.369 228.811 633.582 229.75 633.582 230.85V238H631.096V231.224C631.096 230.139 630.824 229.31 630.282 228.738C629.739 228.151 628.998 227.858 628.06 227.858C627.121 227.858 626.373 228.151 625.816 228.738C625.273 229.31 625.002 230.139 625.002 231.224V238H622.494V225.878H625.002V227.264C625.412 226.765 625.933 226.377 626.564 226.098C627.209 225.819 627.891 225.68 628.61 225.68Z" fill="black"/>
<path d="M635.945 231.928C635.945 230.681 636.194 229.589 636.693 228.65C637.206 227.697 637.91 226.963 638.805 226.45C639.699 225.937 640.726 225.68 641.885 225.68C643.351 225.68 644.561 226.032 645.515 226.736C646.483 227.425 647.135 228.415 647.473 229.706H644.767C644.547 229.105 644.195 228.635 643.711 228.298C643.227 227.961 642.618 227.792 641.885 227.792C640.858 227.792 640.037 228.159 639.421 228.892C638.82 229.611 638.519 230.623 638.519 231.928C638.519 233.233 638.82 234.253 639.421 234.986C640.037 235.719 640.858 236.086 641.885 236.086C643.337 236.086 644.297 235.448 644.767 234.172H647.473C647.121 235.404 646.461 236.387 645.493 237.12C644.525 237.839 643.322 238.198 641.885 238.198C640.726 238.198 639.699 237.941 638.805 237.428C637.91 236.9 637.206 236.167 636.693 235.228C636.194 234.275 635.945 233.175 635.945 231.928Z" fill="black"/>
<path d="M651.248 224.272C650.794 224.272 650.412 224.118 650.104 223.81C649.796 223.502 649.642 223.121 649.642 222.666C649.642 222.211 649.796 221.83 650.104 221.522C650.412 221.214 650.794 221.06 651.248 221.06C651.688 221.06 652.062 221.214 652.37 221.522C652.678 221.83 652.832 222.211 652.832 222.666C652.832 223.121 652.678 223.502 652.37 223.81C652.062 224.118 651.688 224.272 651.248 224.272ZM652.48 225.878V238H649.972V225.878H652.48Z" fill="black"/>
<path d="M654.937 231.884C654.937 230.667 655.186 229.589 655.685 228.65C656.198 227.711 656.888 226.985 657.753 226.472C658.633 225.944 659.608 225.68 660.679 225.68C661.471 225.68 662.248 225.856 663.011 226.208C663.788 226.545 664.404 227 664.859 227.572V221.72H667.389V238H664.859V236.174C664.448 236.761 663.876 237.245 663.143 237.626C662.424 238.007 661.596 238.198 660.657 238.198C659.601 238.198 658.633 237.934 657.753 237.406C656.888 236.863 656.198 236.115 655.685 235.162C655.186 234.194 654.937 233.101 654.937 231.884ZM664.859 231.928C664.859 231.092 664.683 230.366 664.331 229.75C663.994 229.134 663.546 228.665 662.989 228.342C662.432 228.019 661.83 227.858 661.185 227.858C660.54 227.858 659.938 228.019 659.381 228.342C658.824 228.65 658.369 229.112 658.017 229.728C657.68 230.329 657.511 231.048 657.511 231.884C657.511 232.72 657.68 233.453 658.017 234.084C658.369 234.715 658.824 235.199 659.381 235.536C659.953 235.859 660.554 236.02 661.185 236.02C661.83 236.02 662.432 235.859 662.989 235.536C663.546 235.213 663.994 234.744 664.331 234.128C664.683 233.497 664.859 232.764 664.859 231.928Z" fill="black"/>
<path d="M681.661 225.878V238H679.153V236.57C678.757 237.069 678.237 237.465 677.591 237.758C676.961 238.037 676.286 238.176 675.567 238.176C674.614 238.176 673.756 237.978 672.993 237.582C672.245 237.186 671.651 236.599 671.211 235.822C670.786 235.045 670.573 234.106 670.573 233.006V225.878H673.059V232.632C673.059 233.717 673.331 234.553 673.873 235.14C674.416 235.712 675.157 235.998 676.095 235.998C677.034 235.998 677.775 235.712 678.317 235.14C678.875 234.553 679.153 233.717 679.153 232.632V225.878H681.661Z" fill="black"/>
<path d="M691.086 225.68C692.04 225.68 692.89 225.878 693.638 226.274C694.401 226.67 694.995 227.257 695.42 228.034C695.846 228.811 696.058 229.75 696.058 230.85V238H693.572V231.224C693.572 230.139 693.301 229.31 692.758 228.738C692.216 228.151 691.475 227.858 690.536 227.858C689.598 227.858 688.85 228.151 688.292 228.738C687.75 229.31 687.478 230.139 687.478 231.224V238H684.97V225.878H687.478V227.264C687.889 226.765 688.41 226.377 689.04 226.098C689.686 225.819 690.368 225.68 691.086 225.68Z" fill="black"/>
<path d="M702.183 227.924V234.634C702.183 235.089 702.286 235.419 702.491 235.624C702.711 235.815 703.078 235.91 703.591 235.91H705.131V238H703.151C702.022 238 701.157 237.736 700.555 237.208C699.954 236.68 699.653 235.822 699.653 234.634V227.924H698.223V225.878H699.653V222.864H702.183V225.878H705.131V227.924H702.183Z" fill="black"/>
<path d="M708.455 238.154C708 238.154 707.619 238 707.311 237.692C707.003 237.384 706.849 237.003 706.849 236.548C706.849 236.093 707.003 235.712 707.311 235.404C707.619 235.096 708 234.942 708.455 234.942C708.895 234.942 709.269 235.096 709.577 235.404C709.885 235.712 710.039 236.093 710.039 236.548C710.039 237.003 709.885 237.384 709.577 237.692C709.269 238 708.895 238.154 708.455 238.154Z" fill="black"/>
<path d="M720.972 224.734V229.222H726.252V231.268H720.972V235.954H726.912V238H718.464V222.688H726.912V224.734H720.972Z" fill="black"/>
<path d="M732.51 227.638C732.876 227.022 733.36 226.545 733.962 226.208C734.578 225.856 735.304 225.68 736.14 225.68V228.276H735.502C734.519 228.276 733.771 228.525 733.258 229.024C732.759 229.523 732.51 230.388 732.51 231.62V238H730.002V225.878H732.51V227.638Z" fill="black"/>
<path d="M743.703 238.198C742.559 238.198 741.525 237.941 740.601 237.428C739.677 236.9 738.951 236.167 738.423 235.228C737.895 234.275 737.631 233.175 737.631 231.928C737.631 230.696 737.902 229.603 738.445 228.65C738.988 227.697 739.728 226.963 740.667 226.45C741.606 225.937 742.654 225.68 743.813 225.68C744.972 225.68 746.02 225.937 746.959 226.45C747.898 226.963 748.638 227.697 749.181 228.65C749.724 229.603 749.995 230.696 749.995 231.928C749.995 233.16 749.716 234.253 749.159 235.206C748.602 236.159 747.839 236.9 746.871 237.428C745.918 237.941 744.862 238.198 743.703 238.198ZM743.703 236.02C744.348 236.02 744.95 235.866 745.507 235.558C746.079 235.25 746.541 234.788 746.893 234.172C747.245 233.556 747.421 232.808 747.421 231.928C747.421 231.048 747.252 230.307 746.915 229.706C746.578 229.09 746.13 228.628 745.573 228.32C745.016 228.012 744.414 227.858 743.769 227.858C743.124 227.858 742.522 228.012 741.965 228.32C741.422 228.628 740.99 229.09 740.667 229.706C740.344 230.307 740.183 231.048 740.183 231.928C740.183 233.233 740.513 234.245 741.173 234.964C741.848 235.668 742.691 236.02 743.703 236.02Z" fill="black"/>
<path d="M756.874 238.198C755.921 238.198 755.063 238.029 754.3 237.692C753.552 237.34 752.958 236.871 752.518 236.284C752.078 235.683 751.844 235.015 751.814 234.282H754.41C754.454 234.795 754.696 235.228 755.136 235.58C755.591 235.917 756.156 236.086 756.83 236.086C757.534 236.086 758.077 235.954 758.458 235.69C758.854 235.411 759.052 235.059 759.052 234.634C759.052 234.179 758.832 233.842 758.392 233.622C757.967 233.402 757.285 233.16 756.346 232.896C755.437 232.647 754.696 232.405 754.124 232.17C753.552 231.935 753.054 231.576 752.628 231.092C752.218 230.608 752.012 229.97 752.012 229.178C752.012 228.533 752.203 227.946 752.584 227.418C752.966 226.875 753.508 226.45 754.212 226.142C754.931 225.834 755.752 225.68 756.676 225.68C758.055 225.68 759.162 226.032 759.998 226.736C760.849 227.425 761.304 228.371 761.362 229.574H758.854C758.81 229.031 758.59 228.599 758.194 228.276C757.798 227.953 757.263 227.792 756.588 227.792C755.928 227.792 755.422 227.917 755.07 228.166C754.718 228.415 754.542 228.745 754.542 229.156C754.542 229.479 754.66 229.75 754.894 229.97C755.129 230.19 755.415 230.366 755.752 230.498C756.09 230.615 756.588 230.769 757.248 230.96C758.128 231.195 758.847 231.437 759.404 231.686C759.976 231.921 760.468 232.273 760.878 232.742C761.289 233.211 761.502 233.835 761.516 234.612C761.516 235.301 761.326 235.917 760.944 236.46C760.563 237.003 760.02 237.428 759.316 237.736C758.627 238.044 757.813 238.198 756.874 238.198Z" fill="black"/>
<path d="M766.976 234.986L764.314 241.058H762.686L764.248 234.986H766.976Z" fill="black"/>
<path d="M779.964 227.924H777.72V238H775.19V227.924H773.76V225.878H775.19V225.02C775.19 223.627 775.557 222.615 776.29 221.984C777.038 221.339 778.204 221.016 779.788 221.016V223.106C779.026 223.106 778.49 223.253 778.182 223.546C777.874 223.825 777.72 224.316 777.72 225.02V225.878H779.964V227.924Z" fill="black"/>
<path d="M781.351 231.884C781.351 230.667 781.6 229.589 782.099 228.65C782.612 227.711 783.302 226.985 784.167 226.472C785.047 225.944 786.015 225.68 787.071 225.68C788.024 225.68 788.853 225.871 789.557 226.252C790.276 226.619 790.848 227.081 791.273 227.638V225.878H793.803V238H791.273V236.196C790.848 236.768 790.268 237.245 789.535 237.626C788.802 238.007 787.966 238.198 787.027 238.198C785.986 238.198 785.032 237.934 784.167 237.406C783.302 236.863 782.612 236.115 782.099 235.162C781.6 234.194 781.351 233.101 781.351 231.884ZM791.273 231.928C791.273 231.092 791.097 230.366 790.745 229.75C790.408 229.134 789.96 228.665 789.403 228.342C788.846 228.019 788.244 227.858 787.599 227.858C786.954 227.858 786.352 228.019 785.795 228.342C785.238 228.65 784.783 229.112 784.431 229.728C784.094 230.329 783.925 231.048 783.925 231.884C783.925 232.72 784.094 233.453 784.431 234.084C784.783 234.715 785.238 235.199 785.795 235.536C786.367 235.859 786.968 236.02 787.599 236.02C788.244 236.02 788.846 235.859 789.403 235.536C789.96 235.213 790.408 234.744 790.745 234.128C791.097 233.497 791.273 232.764 791.273 231.928Z" fill="black"/>
<path d="M796.261 231.928C796.261 230.681 796.511 229.589 797.009 228.65C797.523 227.697 798.227 226.963 799.121 226.45C800.016 225.937 801.043 225.68 802.201 225.68C803.668 225.68 804.878 226.032 805.831 226.736C806.799 227.425 807.452 228.415 807.789 229.706H805.083C804.863 229.105 804.511 228.635 804.027 228.298C803.543 227.961 802.935 227.792 802.201 227.792C801.175 227.792 800.353 228.159 799.737 228.892C799.136 229.611 798.835 230.623 798.835 231.928C798.835 233.233 799.136 234.253 799.737 234.986C800.353 235.719 801.175 236.086 802.201 236.086C803.653 236.086 804.614 235.448 805.083 234.172H807.789C807.437 235.404 806.777 236.387 805.809 237.12C804.841 237.839 803.639 238.198 802.201 238.198C801.043 238.198 800.016 237.941 799.121 237.428C798.227 236.9 797.523 236.167 797.009 235.228C796.511 234.275 796.261 233.175 796.261 231.928Z" fill="black"/>
<path d="M811.565 224.272C811.11 224.272 810.729 224.118 810.421 223.81C810.113 223.502 809.959 223.121 809.959 222.666C809.959 222.211 810.113 221.83 810.421 221.522C810.729 221.214 811.11 221.06 811.565 221.06C812.005 221.06 812.379 221.214 812.687 221.522C812.995 221.83 813.149 222.211 813.149 222.666C813.149 223.121 812.995 223.502 812.687 223.81C812.379 224.118 812.005 224.272 811.565 224.272ZM812.797 225.878V238H810.289V225.878H812.797Z" fill="black"/>
<path d="M818.597 221.72V238H816.089V221.72H818.597Z" fill="black"/>
<path d="M823.166 224.272C822.712 224.272 822.33 224.118 822.022 223.81C821.714 223.502 821.56 223.121 821.56 222.666C821.56 222.211 821.714 221.83 822.022 221.522C822.33 221.214 822.712 221.06 823.166 221.06C823.606 221.06 823.98 221.214 824.288 221.522C824.596 221.83 824.75 222.211 824.75 222.666C824.75 223.121 824.596 223.502 824.288 223.81C823.98 224.118 823.606 224.272 823.166 224.272ZM824.398 225.878V238H821.89V225.878H824.398Z" fill="black"/>
<path d="M832.091 238.198C831.138 238.198 830.28 238.029 829.517 237.692C828.769 237.34 828.175 236.871 827.735 236.284C827.295 235.683 827.06 235.015 827.031 234.282H829.627C829.671 234.795 829.913 235.228 830.353 235.58C830.808 235.917 831.372 236.086 832.047 236.086C832.751 236.086 833.294 235.954 833.675 235.69C834.071 235.411 834.269 235.059 834.269 234.634C834.269 234.179 834.049 233.842 833.609 233.622C833.184 233.402 832.502 233.16 831.563 232.896C830.654 232.647 829.913 232.405 829.341 232.17C828.769 231.935 828.27 231.576 827.845 231.092C827.434 230.608 827.229 229.97 827.229 229.178C827.229 228.533 827.42 227.946 827.801 227.418C828.182 226.875 828.725 226.45 829.429 226.142C830.148 225.834 830.969 225.68 831.893 225.68C833.272 225.68 834.379 226.032 835.215 226.736C836.066 227.425 836.52 228.371 836.579 229.574H834.071C834.027 229.031 833.807 228.599 833.411 228.276C833.015 227.953 832.48 227.792 831.805 227.792C831.145 227.792 830.639 227.917 830.287 228.166C829.935 228.415 829.759 228.745 829.759 229.156C829.759 229.479 829.876 229.75 830.111 229.97C830.346 230.19 830.632 230.366 830.969 230.498C831.306 230.615 831.805 230.769 832.465 230.96C833.345 231.195 834.064 231.437 834.621 231.686C835.193 231.921 835.684 232.273 836.095 232.742C836.506 233.211 836.718 233.835 836.733 234.612C836.733 235.301 836.542 235.917 836.161 236.46C835.78 237.003 835.237 237.428 834.533 237.736C833.844 238.044 833.03 238.198 832.091 238.198Z" fill="black"/>
<path d="M840.719 224.272C840.264 224.272 839.883 224.118 839.575 223.81C839.267 223.502 839.113 223.121 839.113 222.666C839.113 222.211 839.267 221.83 839.575 221.522C839.883 221.214 840.264 221.06 840.719 221.06C841.159 221.06 841.533 221.214 841.841 221.522C842.149 221.83 842.303 222.211 842.303 222.666C842.303 223.121 842.149 223.502 841.841 223.81C841.533 224.118 841.159 224.272 840.719 224.272ZM841.951 225.878V238H839.443V225.878H841.951Z" fill="black"/>
<path d="M434.336 268.756L437.768 258.878H440.43L435.81 271H432.818L428.22 258.878H430.904L434.336 268.756Z" fill="black"/>
<path d="M453.304 258.878V271H450.796V269.57C450.4 270.069 449.879 270.465 449.234 270.758C448.603 271.037 447.928 271.176 447.21 271.176C446.256 271.176 445.398 270.978 444.636 270.582C443.888 270.186 443.294 269.599 442.854 268.822C442.428 268.045 442.216 267.106 442.216 266.006V258.878H444.702V265.632C444.702 266.717 444.973 267.553 445.516 268.14C446.058 268.712 446.799 268.998 447.738 268.998C448.676 268.998 449.417 268.712 449.96 268.14C450.517 267.553 450.796 266.717 450.796 265.632V258.878H453.304Z" fill="black"/>
<path d="M459.121 254.72V271H456.613V254.72H459.121Z" fill="black"/>
<path d="M464.922 260.66C465.347 260.103 465.926 259.633 466.66 259.252C467.393 258.871 468.222 258.68 469.146 258.68C470.202 258.68 471.162 258.944 472.028 259.472C472.908 259.985 473.597 260.711 474.096 261.65C474.594 262.589 474.844 263.667 474.844 264.884C474.844 266.101 474.594 267.194 474.096 268.162C473.597 269.115 472.908 269.863 472.028 270.406C471.162 270.934 470.202 271.198 469.146 271.198C468.222 271.198 467.4 271.015 466.682 270.648C465.963 270.267 465.376 269.797 464.922 269.24V276.764H462.414V258.878H464.922V260.66ZM472.292 264.884C472.292 264.048 472.116 263.329 471.764 262.728C471.426 262.112 470.972 261.65 470.4 261.342C469.842 261.019 469.241 260.858 468.596 260.858C467.965 260.858 467.364 261.019 466.792 261.342C466.234 261.665 465.78 262.134 465.428 262.75C465.09 263.366 464.922 264.092 464.922 264.928C464.922 265.764 465.09 266.497 465.428 267.128C465.78 267.744 466.234 268.213 466.792 268.536C467.364 268.859 467.965 269.02 468.596 269.02C469.241 269.02 469.842 268.859 470.4 268.536C470.972 268.199 471.426 267.715 471.764 267.084C472.116 266.453 472.292 265.72 472.292 264.884Z" fill="black"/>
<path d="M488.302 258.878V271H485.794V269.57C485.398 270.069 484.877 270.465 484.232 270.758C483.601 271.037 482.926 271.176 482.208 271.176C481.254 271.176 480.396 270.978 479.634 270.582C478.886 270.186 478.292 269.599 477.852 268.822C477.426 268.045 477.214 267.106 477.214 266.006V258.878H479.7V265.632C479.7 266.717 479.971 267.553 480.514 268.14C481.056 268.712 481.797 268.998 482.736 268.998C483.674 268.998 484.415 268.712 484.958 268.14C485.515 267.553 485.794 266.717 485.794 265.632V258.878H488.302Z" fill="black"/>
<path d="M494.537 260.924V267.634C494.537 268.089 494.64 268.419 494.845 268.624C495.065 268.815 495.432 268.91 495.945 268.91H497.485V271H495.505C494.376 271 493.51 270.736 492.909 270.208C492.308 269.68 492.007 268.822 492.007 267.634V260.924H490.577V258.878H492.007V255.864H494.537V258.878H497.485V260.924H494.537Z" fill="black"/>
<path d="M498.96 264.884C498.96 263.667 499.21 262.589 499.708 261.65C500.222 260.711 500.911 259.985 501.776 259.472C502.656 258.944 503.624 258.68 504.68 258.68C505.634 258.68 506.462 258.871 507.166 259.252C507.885 259.619 508.457 260.081 508.882 260.638V258.878H511.412V271H508.882V269.196C508.457 269.768 507.878 270.245 507.144 270.626C506.411 271.007 505.575 271.198 504.636 271.198C503.595 271.198 502.642 270.934 501.776 270.406C500.911 269.863 500.222 269.115 499.708 268.162C499.21 267.194 498.96 266.101 498.96 264.884ZM508.882 264.928C508.882 264.092 508.706 263.366 508.354 262.75C508.017 262.134 507.57 261.665 507.012 261.342C506.455 261.019 505.854 260.858 505.208 260.858C504.563 260.858 503.962 261.019 503.404 261.342C502.847 261.65 502.392 262.112 502.04 262.728C501.703 263.329 501.534 264.048 501.534 264.884C501.534 265.72 501.703 266.453 502.04 267.084C502.392 267.715 502.847 268.199 503.404 268.536C503.976 268.859 504.578 269.02 505.208 269.02C505.854 269.02 506.455 268.859 507.012 268.536C507.57 268.213 508.017 267.744 508.354 267.128C508.706 266.497 508.882 265.764 508.882 264.928Z" fill="black"/>
<path d="M517.633 260.924V267.634C517.633 268.089 517.735 268.419 517.941 268.624C518.161 268.815 518.527 268.91 519.041 268.91H520.581V271H518.601C517.471 271 516.606 270.736 516.005 270.208C515.403 269.68 515.103 268.822 515.103 267.634V260.924H513.673V258.878H515.103V255.864H517.633V258.878H520.581V260.924H517.633Z" fill="black"/>
<path d="M534.002 264.642C534.002 265.097 533.973 265.507 533.914 265.874H524.652C524.725 266.842 525.085 267.619 525.73 268.206C526.375 268.793 527.167 269.086 528.106 269.086C529.455 269.086 530.409 268.521 530.966 267.392H533.672C533.305 268.507 532.638 269.423 531.67 270.142C530.717 270.846 529.529 271.198 528.106 271.198C526.947 271.198 525.906 270.941 524.982 270.428C524.073 269.9 523.354 269.167 522.826 268.228C522.313 267.275 522.056 266.175 522.056 264.928C522.056 263.681 522.305 262.589 522.804 261.65C523.317 260.697 524.029 259.963 524.938 259.45C525.862 258.937 526.918 258.68 528.106 258.68C529.25 258.68 530.269 258.929 531.164 259.428C532.059 259.927 532.755 260.631 533.254 261.54C533.753 262.435 534.002 263.469 534.002 264.642ZM531.384 263.85C531.369 262.926 531.039 262.185 530.394 261.628C529.749 261.071 528.949 260.792 527.996 260.792C527.131 260.792 526.39 261.071 525.774 261.628C525.158 262.171 524.791 262.911 524.674 263.85H531.384Z" fill="black"/>
<path d="M553.295 264.642C553.295 265.097 553.266 265.507 553.207 265.874H543.945C544.018 266.842 544.378 267.619 545.023 268.206C545.668 268.793 546.46 269.086 547.399 269.086C548.748 269.086 549.702 268.521 550.259 267.392H552.965C552.598 268.507 551.931 269.423 550.963 270.142C550.01 270.846 548.822 271.198 547.399 271.198C546.24 271.198 545.199 270.941 544.275 270.428C543.366 269.9 542.647 269.167 542.119 268.228C541.606 267.275 541.349 266.175 541.349 264.928C541.349 263.681 541.598 262.589 542.097 261.65C542.61 260.697 543.322 259.963 544.231 259.45C545.155 258.937 546.211 258.68 547.399 258.68C548.543 258.68 549.562 258.929 550.457 259.428C551.352 259.927 552.048 260.631 552.547 261.54C553.046 262.435 553.295 263.469 553.295 264.642ZM550.677 263.85C550.662 262.926 550.332 262.185 549.687 261.628C549.042 261.071 548.242 260.792 547.289 260.792C546.424 260.792 545.683 261.071 545.067 261.628C544.451 262.171 544.084 262.911 543.967 263.85H550.677Z" fill="black"/>
<path d="M566.741 258.878V271H564.233V269.57C563.837 270.069 563.317 270.465 562.671 270.758C562.041 271.037 561.366 271.176 560.647 271.176C559.694 271.176 558.836 270.978 558.073 270.582C557.325 270.186 556.731 269.599 556.291 268.822C555.866 268.045 555.653 267.106 555.653 266.006V258.878H558.139V265.632C558.139 266.717 558.411 267.553 558.953 268.14C559.496 268.712 560.237 268.998 561.175 268.998C562.114 268.998 562.855 268.712 563.397 268.14C563.955 267.553 564.233 266.717 564.233 265.632V258.878H566.741Z" fill="black"/>
<path d="M574.929 264.884C574.929 263.667 575.179 262.589 575.677 261.65C576.191 260.711 576.88 259.985 577.745 259.472C578.625 258.944 579.601 258.68 580.671 258.68C581.463 258.68 582.241 258.856 583.003 259.208C583.781 259.545 584.397 260 584.851 260.572V254.72H587.381V271H584.851V269.174C584.441 269.761 583.869 270.245 583.135 270.626C582.417 271.007 581.588 271.198 580.649 271.198C579.593 271.198 578.625 270.934 577.745 270.406C576.88 269.863 576.191 269.115 575.677 268.162C575.179 267.194 574.929 266.101 574.929 264.884ZM584.851 264.928C584.851 264.092 584.675 263.366 584.323 262.75C583.986 262.134 583.539 261.665 582.981 261.342C582.424 261.019 581.823 260.858 581.177 260.858C580.532 260.858 579.931 261.019 579.373 261.342C578.816 261.65 578.361 262.112 578.009 262.728C577.672 263.329 577.503 264.048 577.503 264.884C577.503 265.72 577.672 266.453 578.009 267.084C578.361 267.715 578.816 268.199 579.373 268.536C579.945 268.859 580.547 269.02 581.177 269.02C581.823 269.02 582.424 268.859 582.981 268.536C583.539 268.213 583.986 267.744 584.323 267.128C584.675 266.497 584.851 265.764 584.851 264.928Z" fill="black"/>
<path d="M595.933 271.198C594.789 271.198 593.755 270.941 592.831 270.428C591.907 269.9 591.181 269.167 590.653 268.228C590.125 267.275 589.861 266.175 589.861 264.928C589.861 263.696 590.133 262.603 590.675 261.65C591.218 260.697 591.959 259.963 592.897 259.45C593.836 258.937 594.885 258.68 596.043 258.68C597.202 258.68 598.251 258.937 599.189 259.45C600.128 259.963 600.869 260.697 601.411 261.65C601.954 262.603 602.225 263.696 602.225 264.928C602.225 266.16 601.947 267.253 601.389 268.206C600.832 269.159 600.069 269.9 599.101 270.428C598.148 270.941 597.092 271.198 595.933 271.198ZM595.933 269.02C596.579 269.02 597.18 268.866 597.737 268.558C598.309 268.25 598.771 267.788 599.123 267.172C599.475 266.556 599.651 265.808 599.651 264.928C599.651 264.048 599.483 263.307 599.145 262.706C598.808 262.09 598.361 261.628 597.803 261.32C597.246 261.012 596.645 260.858 595.999 260.858C595.354 260.858 594.753 261.012 594.195 261.32C593.653 261.628 593.22 262.09 592.897 262.706C592.575 263.307 592.413 264.048 592.413 264.928C592.413 266.233 592.743 267.245 593.403 267.964C594.078 268.668 594.921 269.02 595.933 269.02Z" fill="black"/>
<path d="M610.821 258.68C611.774 258.68 612.625 258.878 613.373 259.274C614.135 259.67 614.729 260.257 615.155 261.034C615.58 261.811 615.793 262.75 615.793 263.85V271H613.307V264.224C613.307 263.139 613.035 262.31 612.493 261.738C611.95 261.151 611.209 260.858 610.271 260.858C609.332 260.858 608.584 261.151 608.027 261.738C607.484 262.31 607.213 263.139 607.213 264.224V271H604.705V258.878H607.213V260.264C607.623 259.765 608.144 259.377 608.775 259.098C609.42 258.819 610.102 258.68 610.821 258.68Z" fill="black"/>
<path d="M630.102 264.642C630.102 265.097 630.072 265.507 630.014 265.874H620.752C620.825 266.842 621.184 267.619 621.83 268.206C622.475 268.793 623.267 269.086 624.206 269.086C625.555 269.086 626.508 268.521 627.066 267.392H629.772C629.405 268.507 628.738 269.423 627.77 270.142C626.816 270.846 625.628 271.198 624.206 271.198C623.047 271.198 622.006 270.941 621.082 270.428C620.172 269.9 619.454 269.167 618.926 268.228C618.412 267.275 618.156 266.175 618.156 264.928C618.156 263.681 618.405 262.589 618.904 261.65C619.417 260.697 620.128 259.963 621.038 259.45C621.962 258.937 623.018 258.68 624.206 258.68C625.35 258.68 626.369 258.929 627.264 259.428C628.158 259.927 628.855 260.631 629.354 261.54C629.852 262.435 630.102 263.469 630.102 264.642ZM627.484 263.85C627.469 262.926 627.139 262.185 626.494 261.628C625.848 261.071 625.049 260.792 624.096 260.792C623.23 260.792 622.49 261.071 621.874 261.628C621.258 262.171 620.891 262.911 620.774 263.85H627.484Z" fill="black"/>
<path d="M631.734 264.928C631.734 263.681 631.983 262.589 632.482 261.65C632.995 260.697 633.699 259.963 634.594 259.45C635.489 258.937 636.515 258.68 637.674 258.68C639.141 258.68 640.351 259.032 641.304 259.736C642.272 260.425 642.925 261.415 643.262 262.706H640.556C640.336 262.105 639.984 261.635 639.5 261.298C639.016 260.961 638.407 260.792 637.674 260.792C636.647 260.792 635.826 261.159 635.21 261.892C634.609 262.611 634.308 263.623 634.308 264.928C634.308 266.233 634.609 267.253 635.21 267.986C635.826 268.719 636.647 269.086 637.674 269.086C639.126 269.086 640.087 268.448 640.556 267.172H643.262C642.91 268.404 642.25 269.387 641.282 270.12C640.314 270.839 639.111 271.198 637.674 271.198C636.515 271.198 635.489 270.941 634.594 270.428C633.699 269.9 632.995 269.167 632.482 268.228C631.983 267.275 631.734 266.175 631.734 264.928Z" fill="black"/>
<path d="M653.984 260.66C654.409 260.103 654.989 259.633 655.722 259.252C656.455 258.871 657.284 258.68 658.208 258.68C659.264 258.68 660.225 258.944 661.09 259.472C661.97 259.985 662.659 260.711 663.158 261.65C663.657 262.589 663.906 263.667 663.906 264.884C663.906 266.101 663.657 267.194 663.158 268.162C662.659 269.115 661.97 269.863 661.09 270.406C660.225 270.934 659.264 271.198 658.208 271.198C657.284 271.198 656.463 271.015 655.744 270.648C655.025 270.267 654.439 269.797 653.984 269.24V276.764H651.476V258.878H653.984V260.66ZM661.354 264.884C661.354 264.048 661.178 263.329 660.826 262.728C660.489 262.112 660.034 261.65 659.462 261.342C658.905 261.019 658.303 260.858 657.658 260.858C657.027 260.858 656.426 261.019 655.854 261.342C655.297 261.665 654.842 262.134 654.49 262.75C654.153 263.366 653.984 264.092 653.984 264.928C653.984 265.764 654.153 266.497 654.49 267.128C654.842 267.744 655.297 268.213 655.854 268.536C656.426 268.859 657.027 269.02 657.658 269.02C658.303 269.02 658.905 268.859 659.462 268.536C660.034 268.199 660.489 267.715 660.826 267.084C661.178 266.453 661.354 265.72 661.354 264.884Z" fill="black"/>
<path d="M672.656 258.68C673.58 258.68 674.402 258.878 675.12 259.274C675.854 259.67 676.426 260.257 676.836 261.034C677.262 261.811 677.474 262.75 677.474 263.85V271H674.988V264.224C674.988 263.139 674.717 262.31 674.174 261.738C673.632 261.151 672.891 260.858 671.952 260.858C671.014 260.858 670.266 261.151 669.708 261.738C669.166 262.31 668.894 263.139 668.894 264.224V271H666.386V254.72H668.894V260.286C669.32 259.773 669.855 259.377 670.5 259.098C671.16 258.819 671.879 258.68 672.656 258.68Z" fill="black"/>
<path d="M679.837 264.884C679.837 263.667 680.087 262.589 680.585 261.65C681.099 260.711 681.788 259.985 682.653 259.472C683.533 258.944 684.501 258.68 685.557 258.68C686.511 258.68 687.339 258.871 688.043 259.252C688.762 259.619 689.334 260.081 689.759 260.638V258.878H692.289V271H689.759V269.196C689.334 269.768 688.755 270.245 688.021 270.626C687.288 271.007 686.452 271.198 685.513 271.198C684.472 271.198 683.519 270.934 682.653 270.406C681.788 269.863 681.099 269.115 680.585 268.162C680.087 267.194 679.837 266.101 679.837 264.884ZM689.759 264.928C689.759 264.092 689.583 263.366 689.231 262.75C688.894 262.134 688.447 261.665 687.889 261.342C687.332 261.019 686.731 260.858 686.085 260.858C685.44 260.858 684.839 261.019 684.281 261.342C683.724 261.65 683.269 262.112 682.917 262.728C682.58 263.329 682.411 264.048 682.411 264.884C682.411 265.72 682.58 266.453 682.917 267.084C683.269 267.715 683.724 268.199 684.281 268.536C684.853 268.859 685.455 269.02 686.085 269.02C686.731 269.02 687.332 268.859 687.889 268.536C688.447 268.213 688.894 267.744 689.231 267.128C689.583 266.497 689.759 265.764 689.759 264.928Z" fill="black"/>
<path d="M698.092 260.638C698.458 260.022 698.942 259.545 699.544 259.208C700.16 258.856 700.886 258.68 701.722 258.68V261.276H701.084C700.101 261.276 699.353 261.525 698.84 262.024C698.341 262.523 698.092 263.388 698.092 264.62V271H695.584V258.878H698.092V260.638Z" fill="black"/>
<path d="M715.137 264.642C715.137 265.097 715.108 265.507 715.049 265.874H705.787C705.86 266.842 706.22 267.619 706.865 268.206C707.51 268.793 708.302 269.086 709.241 269.086C710.59 269.086 711.544 268.521 712.101 267.392H714.807C714.44 268.507 713.773 269.423 712.805 270.142C711.852 270.846 710.664 271.198 709.241 271.198C708.082 271.198 707.041 270.941 706.117 270.428C705.208 269.9 704.489 269.167 703.961 268.228C703.448 267.275 703.191 266.175 703.191 264.928C703.191 263.681 703.44 262.589 703.939 261.65C704.452 260.697 705.164 259.963 706.073 259.45C706.997 258.937 708.053 258.68 709.241 258.68C710.385 258.68 711.404 258.929 712.299 259.428C713.194 259.927 713.89 260.631 714.389 261.54C714.888 262.435 715.137 263.469 715.137 264.642ZM712.519 263.85C712.504 262.926 712.174 262.185 711.529 261.628C710.884 261.071 710.084 260.792 709.131 260.792C708.266 260.792 707.525 261.071 706.909 261.628C706.293 262.171 705.926 262.911 705.809 263.85H712.519Z" fill="black"/>
<path d="M720.531 260.924V267.634C720.531 268.089 720.634 268.419 720.839 268.624C721.059 268.815 721.426 268.91 721.939 268.91H723.479V271H721.499C720.37 271 719.504 270.736 718.903 270.208C718.302 269.68 718.001 268.822 718.001 267.634V260.924H716.571V258.878H718.001V255.864H720.531V258.878H723.479V260.924H720.531Z" fill="black"/>
<path d="M728.299 260.638C728.665 260.022 729.149 259.545 729.751 259.208C730.367 258.856 731.093 258.68 731.929 258.68V261.276H731.291C730.308 261.276 729.56 261.525 729.047 262.024C728.548 262.523 728.299 263.388 728.299 264.62V271H725.791V258.878H728.299V260.638Z" fill="black"/>
<path d="M733.398 264.884C733.398 263.667 733.647 262.589 734.146 261.65C734.659 260.711 735.349 259.985 736.214 259.472C737.094 258.944 738.062 258.68 739.118 258.68C740.071 258.68 740.9 258.871 741.604 259.252C742.323 259.619 742.895 260.081 743.32 260.638V258.878H745.85V271H743.32V269.196C742.895 269.768 742.315 270.245 741.582 270.626C740.849 271.007 740.013 271.198 739.074 271.198C738.033 271.198 737.079 270.934 736.214 270.406C735.349 269.863 734.659 269.115 734.146 268.162C733.647 267.194 733.398 266.101 733.398 264.884ZM743.32 264.928C743.32 264.092 743.144 263.366 742.792 262.75C742.455 262.134 742.007 261.665 741.45 261.342C740.893 261.019 740.291 260.858 739.646 260.858C739.001 260.858 738.399 261.019 737.842 261.342C737.285 261.65 736.83 262.112 736.478 262.728C736.141 263.329 735.972 264.048 735.972 264.884C735.972 265.72 736.141 266.453 736.478 267.084C736.83 267.715 737.285 268.199 737.842 268.536C738.414 268.859 739.015 269.02 739.646 269.02C740.291 269.02 740.893 268.859 741.45 268.536C742.007 268.213 742.455 267.744 742.792 267.128C743.144 266.497 743.32 265.764 743.32 264.928Z" fill="black"/>
<path d="M750.156 271.154C749.701 271.154 749.32 271 749.012 270.692C748.704 270.384 748.55 270.003 748.55 269.548C748.55 269.093 748.704 268.712 749.012 268.404C749.32 268.096 749.701 267.942 750.156 267.942C750.596 267.942 750.97 268.096 751.278 268.404C751.586 268.712 751.74 269.093 751.74 269.548C751.74 270.003 751.586 270.384 751.278 270.692C750.97 271 750.596 271.154 750.156 271.154Z" fill="black"/>
<path d="M770.044 255.71V257.756H765.974V271H763.466V257.756H759.374V255.71H770.044Z" fill="black"/>
<path d="M783.694 264.642C783.694 265.097 783.664 265.507 783.606 265.874H774.344C774.417 266.842 774.776 267.619 775.422 268.206C776.067 268.793 776.859 269.086 777.798 269.086C779.147 269.086 780.1 268.521 780.658 267.392H783.364C782.997 268.507 782.33 269.423 781.362 270.142C780.408 270.846 779.22 271.198 777.798 271.198C776.639 271.198 775.598 270.941 774.674 270.428C773.764 269.9 773.046 269.167 772.518 268.228C772.004 267.275 771.748 266.175 771.748 264.928C771.748 263.681 771.997 262.589 772.496 261.65C773.009 260.697 773.72 259.963 774.63 259.45C775.554 258.937 776.61 258.68 777.798 258.68C778.942 258.68 779.961 258.929 780.856 259.428C781.75 259.927 782.447 260.631 782.946 261.54C783.444 262.435 783.694 263.469 783.694 264.642ZM781.076 263.85C781.061 262.926 780.731 262.185 780.086 261.628C779.44 261.071 778.641 260.792 777.688 260.792C776.822 260.792 776.082 261.071 775.466 261.628C774.85 262.171 774.483 262.911 774.366 263.85H781.076Z" fill="black"/>
<path d="M800.836 258.68C801.789 258.68 802.64 258.878 803.388 259.274C804.15 259.67 804.744 260.257 805.17 261.034C805.61 261.811 805.83 262.75 805.83 263.85V271H803.344V264.224C803.344 263.139 803.072 262.31 802.53 261.738C801.987 261.151 801.246 260.858 800.308 260.858C799.369 260.858 798.621 261.151 798.064 261.738C797.521 262.31 797.25 263.139 797.25 264.224V271H794.764V264.224C794.764 263.139 794.492 262.31 793.95 261.738C793.407 261.151 792.666 260.858 791.728 260.858C790.789 260.858 790.041 261.151 789.484 261.738C788.941 262.31 788.67 263.139 788.67 264.224V271H786.162V258.878H788.67V260.264C789.08 259.765 789.601 259.377 790.232 259.098C790.862 258.819 791.537 258.68 792.256 258.68C793.224 258.68 794.089 258.885 794.852 259.296C795.614 259.707 796.201 260.301 796.612 261.078C796.978 260.345 797.55 259.765 798.328 259.34C799.105 258.9 799.941 258.68 800.836 258.68Z" fill="black"/>
<path d="M811.529 260.66C811.954 260.103 812.534 259.633 813.267 259.252C814 258.871 814.829 258.68 815.753 258.68C816.809 258.68 817.77 258.944 818.635 259.472C819.515 259.985 820.204 260.711 820.703 261.65C821.202 262.589 821.451 263.667 821.451 264.884C821.451 266.101 821.202 267.194 820.703 268.162C820.204 269.115 819.515 269.863 818.635 270.406C817.77 270.934 816.809 271.198 815.753 271.198C814.829 271.198 814.008 271.015 813.289 270.648C812.57 270.267 811.984 269.797 811.529 269.24V276.764H809.021V258.878H811.529V260.66ZM818.899 264.884C818.899 264.048 818.723 263.329 818.371 262.728C818.034 262.112 817.579 261.65 817.007 261.342C816.45 261.019 815.848 260.858 815.203 260.858C814.572 260.858 813.971 261.019 813.399 261.342C812.842 261.665 812.387 262.134 812.035 262.75C811.698 263.366 811.529 264.092 811.529 264.928C811.529 265.764 811.698 266.497 812.035 267.128C812.387 267.744 812.842 268.213 813.399 268.536C813.971 268.859 814.572 269.02 815.203 269.02C815.848 269.02 816.45 268.859 817.007 268.536C817.579 268.199 818.034 267.715 818.371 267.084C818.723 266.453 818.899 265.72 818.899 264.884Z" fill="black"/>
<path d="M834.909 258.878V271H832.401V269.57C832.005 270.069 831.485 270.465 830.839 270.758C830.209 271.037 829.534 271.176 828.815 271.176C827.862 271.176 827.004 270.978 826.241 270.582C825.493 270.186 824.899 269.599 824.459 268.822C824.034 268.045 823.821 267.106 823.821 266.006V258.878H826.307V265.632C826.307 266.717 826.579 267.553 827.121 268.14C827.664 268.712 828.405 268.998 829.343 268.998C830.282 268.998 831.023 268.712 831.565 268.14C832.123 267.553 832.401 266.717 832.401 265.632V258.878H834.909Z" fill="black"/>
<path d="M842.618 271.198C841.665 271.198 840.807 271.029 840.044 270.692C839.296 270.34 838.702 269.871 838.262 269.284C837.822 268.683 837.588 268.015 837.558 267.282H840.154C840.198 267.795 840.44 268.228 840.88 268.58C841.335 268.917 841.9 269.086 842.574 269.086C843.278 269.086 843.821 268.954 844.202 268.69C844.598 268.411 844.796 268.059 844.796 267.634C844.796 267.179 844.576 266.842 844.136 266.622C843.711 266.402 843.029 266.16 842.09 265.896C841.181 265.647 840.44 265.405 839.868 265.17C839.296 264.935 838.798 264.576 838.372 264.092C837.962 263.608 837.756 262.97 837.756 262.178C837.756 261.533 837.947 260.946 838.328 260.418C838.71 259.875 839.252 259.45 839.956 259.142C840.675 258.834 841.496 258.68 842.42 258.68C843.799 258.68 844.906 259.032 845.742 259.736C846.593 260.425 847.048 261.371 847.106 262.574H844.598C844.554 262.031 844.334 261.599 843.938 261.276C843.542 260.953 843.007 260.792 842.332 260.792C841.672 260.792 841.166 260.917 840.814 261.166C840.462 261.415 840.286 261.745 840.286 262.156C840.286 262.479 840.404 262.75 840.638 262.97C840.873 263.19 841.159 263.366 841.496 263.498C841.834 263.615 842.332 263.769 842.992 263.96C843.872 264.195 844.591 264.437 845.148 264.686C845.72 264.921 846.212 265.273 846.622 265.742C847.033 266.211 847.246 266.835 847.26 267.612C847.26 268.301 847.07 268.917 846.688 269.46C846.307 270.003 845.764 270.428 845.06 270.736C844.371 271.044 843.557 271.198 842.618 271.198Z" fill="black"/>
<path d="M434.05 304.198C433.097 304.198 432.239 304.029 431.476 303.692C430.728 303.34 430.134 302.871 429.694 302.284C429.254 301.683 429.019 301.015 428.99 300.282H431.586C431.63 300.795 431.872 301.228 432.312 301.58C432.767 301.917 433.331 302.086 434.006 302.086C434.71 302.086 435.253 301.954 435.634 301.69C436.03 301.411 436.228 301.059 436.228 300.634C436.228 300.179 436.008 299.842 435.568 299.622C435.143 299.402 434.461 299.16 433.522 298.896C432.613 298.647 431.872 298.405 431.3 298.17C430.728 297.935 430.229 297.576 429.804 297.092C429.393 296.608 429.188 295.97 429.188 295.178C429.188 294.533 429.379 293.946 429.76 293.418C430.141 292.875 430.684 292.45 431.388 292.142C432.107 291.834 432.928 291.68 433.852 291.68C435.231 291.68 436.338 292.032 437.174 292.736C438.025 293.425 438.479 294.371 438.538 295.574H436.03C435.986 295.031 435.766 294.599 435.37 294.276C434.974 293.953 434.439 293.792 433.764 293.792C433.104 293.792 432.598 293.917 432.246 294.166C431.894 294.415 431.718 294.745 431.718 295.156C431.718 295.479 431.835 295.75 432.07 295.97C432.305 296.19 432.591 296.366 432.928 296.498C433.265 296.615 433.764 296.769 434.424 296.96C435.304 297.195 436.023 297.437 436.58 297.686C437.152 297.921 437.643 298.273 438.054 298.742C438.465 299.211 438.677 299.835 438.692 300.612C438.692 301.301 438.501 301.917 438.12 302.46C437.739 303.003 437.196 303.428 436.492 303.736C435.803 304.044 434.989 304.198 434.05 304.198Z" fill="black"/>
<path d="M442.678 290.272C442.223 290.272 441.842 290.118 441.534 289.81C441.226 289.502 441.072 289.121 441.072 288.666C441.072 288.211 441.226 287.83 441.534 287.522C441.842 287.214 442.223 287.06 442.678 287.06C443.118 287.06 443.492 287.214 443.8 287.522C444.108 287.83 444.262 288.211 444.262 288.666C444.262 289.121 444.108 289.502 443.8 289.81C443.492 290.118 443.118 290.272 442.678 290.272ZM443.91 291.878V304H441.402V291.878H443.91Z" fill="black"/>
<path d="M450.129 293.924V300.634C450.129 301.089 450.231 301.419 450.437 301.624C450.657 301.815 451.023 301.91 451.537 301.91H453.077V304H451.097C449.967 304 449.102 303.736 448.501 303.208C447.899 302.68 447.599 301.822 447.599 300.634V293.924H446.169V291.878H447.599V288.864H450.129V291.878H453.077V293.924H450.129Z" fill="black"/>
<path d="M463.611 287.72V304H461.103V287.72H463.611Z" fill="black"/>
<path d="M478.014 297.642C478.014 298.097 477.985 298.507 477.926 298.874H468.664C468.737 299.842 469.097 300.619 469.742 301.206C470.387 301.793 471.179 302.086 472.118 302.086C473.467 302.086 474.421 301.521 474.978 300.392H477.684C477.317 301.507 476.65 302.423 475.682 303.142C474.729 303.846 473.541 304.198 472.118 304.198C470.959 304.198 469.918 303.941 468.994 303.428C468.085 302.9 467.366 302.167 466.838 301.228C466.325 300.275 466.068 299.175 466.068 297.928C466.068 296.681 466.317 295.589 466.816 294.65C467.329 293.697 468.041 292.963 468.95 292.45C469.874 291.937 470.93 291.68 472.118 291.68C473.262 291.68 474.281 291.929 475.176 292.428C476.071 292.927 476.767 293.631 477.266 294.54C477.765 295.435 478.014 296.469 478.014 297.642ZM475.396 296.85C475.381 295.926 475.051 295.185 474.406 294.628C473.761 294.071 472.961 293.792 472.008 293.792C471.143 293.792 470.402 294.071 469.786 294.628C469.17 295.171 468.803 295.911 468.686 296.85H475.396Z" fill="black"/>
<path d="M479.646 297.928C479.646 296.681 479.895 295.589 480.394 294.65C480.907 293.697 481.611 292.963 482.506 292.45C483.401 291.937 484.427 291.68 485.586 291.68C487.053 291.68 488.263 292.032 489.216 292.736C490.184 293.425 490.837 294.415 491.174 295.706H488.468C488.248 295.105 487.896 294.635 487.412 294.298C486.928 293.961 486.319 293.792 485.586 293.792C484.559 293.792 483.738 294.159 483.122 294.892C482.521 295.611 482.22 296.623 482.22 297.928C482.22 299.233 482.521 300.253 483.122 300.986C483.738 301.719 484.559 302.086 485.586 302.086C487.038 302.086 487.999 301.448 488.468 300.172H491.174C490.822 301.404 490.162 302.387 489.194 303.12C488.226 303.839 487.023 304.198 485.586 304.198C484.427 304.198 483.401 303.941 482.506 303.428C481.611 302.9 480.907 302.167 480.394 301.228C479.895 300.275 479.646 299.175 479.646 297.928Z" fill="black"/>
<path d="M496.599 293.924V300.634C496.599 301.089 496.702 301.419 496.907 301.624C497.127 301.815 497.494 301.91 498.007 301.91H499.547V304H497.567C496.438 304 495.573 303.736 494.971 303.208C494.37 302.68 494.069 301.822 494.069 300.634V293.924H492.639V291.878H494.069V288.864H496.599V291.878H499.547V293.924H496.599Z" fill="black"/>
<path d="M512.837 291.878V304H510.329V302.57C509.933 303.069 509.412 303.465 508.767 303.758C508.136 304.037 507.462 304.176 506.743 304.176C505.79 304.176 504.932 303.978 504.169 303.582C503.421 303.186 502.827 302.599 502.387 301.822C501.962 301.045 501.749 300.106 501.749 299.006V291.878H504.235V298.632C504.235 299.717 504.506 300.553 505.049 301.14C505.592 301.712 506.332 301.998 507.271 301.998C508.21 301.998 508.95 301.712 509.493 301.14C510.05 300.553 510.329 299.717 510.329 298.632V291.878H512.837Z" fill="black"/>
<path d="M520.546 304.198C519.593 304.198 518.735 304.029 517.972 303.692C517.224 303.34 516.63 302.871 516.19 302.284C515.75 301.683 515.515 301.015 515.486 300.282H518.082C518.126 300.795 518.368 301.228 518.808 301.58C519.263 301.917 519.827 302.086 520.502 302.086C521.206 302.086 521.749 301.954 522.13 301.69C522.526 301.411 522.724 301.059 522.724 300.634C522.724 300.179 522.504 299.842 522.064 299.622C521.639 299.402 520.957 299.16 520.018 298.896C519.109 298.647 518.368 298.405 517.796 298.17C517.224 297.935 516.725 297.576 516.3 297.092C515.889 296.608 515.684 295.97 515.684 295.178C515.684 294.533 515.875 293.946 516.256 293.418C516.637 292.875 517.18 292.45 517.884 292.142C518.603 291.834 519.424 291.68 520.348 291.68C521.727 291.68 522.834 292.032 523.67 292.736C524.521 293.425 524.975 294.371 525.034 295.574H522.526C522.482 295.031 522.262 294.599 521.866 294.276C521.47 293.953 520.935 293.792 520.26 293.792C519.6 293.792 519.094 293.917 518.742 294.166C518.39 294.415 518.214 294.745 518.214 295.156C518.214 295.479 518.331 295.75 518.566 295.97C518.801 296.19 519.087 296.366 519.424 296.498C519.761 296.615 520.26 296.769 520.92 296.96C521.8 297.195 522.519 297.437 523.076 297.686C523.648 297.921 524.139 298.273 524.55 298.742C524.961 299.211 525.173 299.835 525.188 300.612C525.188 301.301 524.997 301.917 524.616 302.46C524.235 303.003 523.692 303.428 522.988 303.736C522.299 304.044 521.485 304.198 520.546 304.198Z" fill="black"/>
<path d="M536.121 293.66C536.546 293.103 537.126 292.633 537.859 292.252C538.592 291.871 539.421 291.68 540.345 291.68C541.401 291.68 542.362 291.944 543.227 292.472C544.107 292.985 544.796 293.711 545.295 294.65C545.794 295.589 546.043 296.667 546.043 297.884C546.043 299.101 545.794 300.194 545.295 301.162C544.796 302.115 544.107 302.863 543.227 303.406C542.362 303.934 541.401 304.198 540.345 304.198C539.421 304.198 538.6 304.015 537.881 303.648C537.162 303.267 536.576 302.797 536.121 302.24V309.764H533.613V291.878H536.121V293.66ZM543.491 297.884C543.491 297.048 543.315 296.329 542.963 295.728C542.626 295.112 542.171 294.65 541.599 294.342C541.042 294.019 540.44 293.858 539.795 293.858C539.164 293.858 538.563 294.019 537.991 294.342C537.434 294.665 536.979 295.134 536.627 295.75C536.29 296.366 536.121 297.092 536.121 297.928C536.121 298.764 536.29 299.497 536.627 300.128C536.979 300.744 537.434 301.213 537.991 301.536C538.563 301.859 539.164 302.02 539.795 302.02C540.44 302.02 541.042 301.859 541.599 301.536C542.171 301.199 542.626 300.715 542.963 300.084C543.315 299.453 543.491 298.72 543.491 297.884Z" fill="black"/>
<path d="M554.793 291.68C555.717 291.68 556.538 291.878 557.257 292.274C557.99 292.67 558.562 293.257 558.973 294.034C559.398 294.811 559.611 295.75 559.611 296.85V304H557.125V297.224C557.125 296.139 556.854 295.31 556.311 294.738C555.768 294.151 555.028 293.858 554.089 293.858C553.15 293.858 552.402 294.151 551.845 294.738C551.302 295.31 551.031 296.139 551.031 297.224V304H548.523V287.72H551.031V293.286C551.456 292.773 551.992 292.377 552.637 292.098C553.297 291.819 554.016 291.68 554.793 291.68Z" fill="black"/>
<path d="M561.974 297.884C561.974 296.667 562.223 295.589 562.722 294.65C563.235 293.711 563.925 292.985 564.79 292.472C565.67 291.944 566.638 291.68 567.694 291.68C568.647 291.68 569.476 291.871 570.18 292.252C570.899 292.619 571.471 293.081 571.896 293.638V291.878H574.426V304H571.896V302.196C571.471 302.768 570.891 303.245 570.158 303.626C569.425 304.007 568.589 304.198 567.65 304.198C566.609 304.198 565.655 303.934 564.79 303.406C563.925 302.863 563.235 302.115 562.722 301.162C562.223 300.194 561.974 299.101 561.974 297.884ZM571.896 297.928C571.896 297.092 571.72 296.366 571.368 295.75C571.031 295.134 570.583 294.665 570.026 294.342C569.469 294.019 568.867 293.858 568.222 293.858C567.577 293.858 566.975 294.019 566.418 294.342C565.861 294.65 565.406 295.112 565.054 295.728C564.717 296.329 564.548 297.048 564.548 297.884C564.548 298.72 564.717 299.453 565.054 300.084C565.406 300.715 565.861 301.199 566.418 301.536C566.99 301.859 567.591 302.02 568.222 302.02C568.867 302.02 569.469 301.859 570.026 301.536C570.583 301.213 571.031 300.744 571.368 300.128C571.72 299.497 571.896 298.764 571.896 297.928Z" fill="black"/>
<path d="M580.228 293.638C580.595 293.022 581.079 292.545 581.68 292.208C582.296 291.856 583.022 291.68 583.858 291.68V294.276H583.22C582.238 294.276 581.49 294.525 580.976 295.024C580.478 295.523 580.228 296.388 580.228 297.62V304H577.72V291.878H580.228V293.638Z" fill="black"/>
<path d="M597.274 297.642C597.274 298.097 597.244 298.507 597.186 298.874H587.924C587.997 299.842 588.356 300.619 589.002 301.206C589.647 301.793 590.439 302.086 591.378 302.086C592.727 302.086 593.68 301.521 594.238 300.392H596.944C596.577 301.507 595.91 302.423 594.942 303.142C593.988 303.846 592.8 304.198 591.378 304.198C590.219 304.198 589.178 303.941 588.254 303.428C587.344 302.9 586.626 302.167 586.098 301.228C585.584 300.275 585.328 299.175 585.328 297.928C585.328 296.681 585.577 295.589 586.076 294.65C586.589 293.697 587.3 292.963 588.21 292.45C589.134 291.937 590.19 291.68 591.378 291.68C592.522 291.68 593.541 291.929 594.436 292.428C595.33 292.927 596.027 293.631 596.526 294.54C597.024 295.435 597.274 296.469 597.274 297.642ZM594.656 296.85C594.641 295.926 594.311 295.185 593.666 294.628C593.02 294.071 592.221 293.792 591.268 293.792C590.402 293.792 589.662 294.071 589.046 294.628C588.43 295.171 588.063 295.911 587.946 296.85H594.656Z" fill="black"/>
<path d="M602.668 293.924V300.634C602.668 301.089 602.77 301.419 602.976 301.624C603.196 301.815 603.562 301.91 604.076 301.91H605.616V304H603.636C602.506 304 601.641 303.736 601.04 303.208C600.438 302.68 600.138 301.822 600.138 300.634V293.924H598.708V291.878H600.138V288.864H602.668V291.878H605.616V293.924H602.668Z" fill="black"/>
<path d="M610.435 293.638C610.802 293.022 611.286 292.545 611.887 292.208C612.503 291.856 613.229 291.68 614.065 291.68V294.276H613.427C612.445 294.276 611.697 294.525 611.183 295.024C610.685 295.523 610.435 296.388 610.435 297.62V304H607.927V291.878H610.435V293.638Z" fill="black"/>
<path d="M615.535 297.884C615.535 296.667 615.784 295.589 616.283 294.65C616.796 293.711 617.485 292.985 618.351 292.472C619.231 291.944 620.199 291.68 621.255 291.68C622.208 291.68 623.037 291.871 623.741 292.252C624.459 292.619 625.031 293.081 625.457 293.638V291.878H627.987V304H625.457V302.196C625.031 302.768 624.452 303.245 623.719 303.626C622.985 304.007 622.149 304.198 621.211 304.198C620.169 304.198 619.216 303.934 618.351 303.406C617.485 302.863 616.796 302.115 616.283 301.162C615.784 300.194 615.535 299.101 615.535 297.884ZM625.457 297.928C625.457 297.092 625.281 296.366 624.929 295.75C624.591 295.134 624.144 294.665 623.587 294.342C623.029 294.019 622.428 293.858 621.783 293.858C621.137 293.858 620.536 294.019 619.979 294.342C619.421 294.65 618.967 295.112 618.615 295.728C618.277 296.329 618.109 297.048 618.109 297.884C618.109 298.72 618.277 299.453 618.615 300.084C618.967 300.715 619.421 301.199 619.979 301.536C620.551 301.859 621.152 302.02 621.783 302.02C622.428 302.02 623.029 301.859 623.587 301.536C624.144 301.213 624.591 300.744 624.929 300.128C625.281 299.497 625.457 298.764 625.457 297.928Z" fill="black"/>
<path d="M636.16 297.884C636.16 296.667 636.409 295.589 636.908 294.65C637.421 293.711 638.11 292.985 638.976 292.472C639.856 291.944 640.824 291.68 641.88 291.68C642.833 291.68 643.662 291.871 644.366 292.252C645.084 292.619 645.656 293.081 646.082 293.638V291.878H648.612V304H646.082V302.196C645.656 302.768 645.077 303.245 644.344 303.626C643.61 304.007 642.774 304.198 641.836 304.198C640.794 304.198 639.841 303.934 638.976 303.406C638.11 302.863 637.421 302.115 636.908 301.162C636.409 300.194 636.16 299.101 636.16 297.884ZM646.082 297.928C646.082 297.092 645.906 296.366 645.554 295.75C645.216 295.134 644.769 294.665 644.212 294.342C643.654 294.019 643.053 293.858 642.408 293.858C641.762 293.858 641.161 294.019 640.604 294.342C640.046 294.65 639.592 295.112 639.24 295.728C638.902 296.329 638.734 297.048 638.734 297.884C638.734 298.72 638.902 299.453 639.24 300.084C639.592 300.715 640.046 301.199 640.604 301.536C641.176 301.859 641.777 302.02 642.408 302.02C643.053 302.02 643.654 301.859 644.212 301.536C644.769 301.213 645.216 300.744 645.554 300.128C645.906 299.497 646.082 298.764 646.082 297.928Z" fill="black"/>
<path d="M654.414 287.72V304H651.906V287.72H654.414Z" fill="black"/>
<path d="M658.983 290.272C658.528 290.272 658.147 290.118 657.839 289.81C657.531 289.502 657.377 289.121 657.377 288.666C657.377 288.211 657.531 287.83 657.839 287.522C658.147 287.214 658.528 287.06 658.983 287.06C659.423 287.06 659.797 287.214 660.105 287.522C660.413 287.83 660.567 288.211 660.567 288.666C660.567 289.121 660.413 289.502 660.105 289.81C659.797 290.118 659.423 290.272 658.983 290.272ZM660.215 291.878V304H657.707V291.878H660.215Z" fill="black"/>
<path d="M662.671 297.884C662.671 296.667 662.921 295.589 663.419 294.65C663.933 293.711 664.622 292.985 665.487 292.472C666.367 291.944 667.343 291.68 668.413 291.68C669.352 291.68 670.181 291.871 670.899 292.252C671.633 292.633 672.197 293.095 672.593 293.638V291.878H675.123V309.764H672.593V302.24C672.197 302.783 671.625 303.245 670.877 303.626C670.129 304.007 669.279 304.198 668.325 304.198C667.284 304.198 666.331 303.934 665.465 303.406C664.615 302.863 663.933 302.115 663.419 301.162C662.921 300.194 662.671 299.101 662.671 297.884ZM672.593 297.928C672.593 297.092 672.417 296.366 672.065 295.75C671.728 295.134 671.281 294.665 670.723 294.342C670.166 294.019 669.565 293.858 668.919 293.858C668.274 293.858 667.673 294.019 667.115 294.342C666.558 294.65 666.103 295.112 665.751 295.728C665.414 296.329 665.245 297.048 665.245 297.884C665.245 298.72 665.414 299.453 665.751 300.084C666.103 300.715 666.558 301.199 667.115 301.536C667.687 301.859 668.289 302.02 668.919 302.02C669.565 302.02 670.166 301.859 670.723 301.536C671.281 301.213 671.728 300.744 672.065 300.128C672.417 299.497 672.593 298.764 672.593 297.928Z" fill="black"/>
<path d="M689.396 291.878V304H686.888V302.57C686.492 303.069 685.971 303.465 685.326 303.758C684.695 304.037 684.02 304.176 683.302 304.176C682.348 304.176 681.49 303.978 680.728 303.582C679.98 303.186 679.386 302.599 678.946 301.822C678.52 301.045 678.308 300.106 678.308 299.006V291.878H680.794V298.632C680.794 299.717 681.065 300.553 681.608 301.14C682.15 301.712 682.891 301.998 683.83 301.998C684.768 301.998 685.509 301.712 686.052 301.14C686.609 300.553 686.888 299.717 686.888 298.632V291.878H689.396Z" fill="black"/>
<path d="M703.815 297.642C703.815 298.097 703.785 298.507 703.727 298.874H694.465C694.538 299.842 694.897 300.619 695.543 301.206C696.188 301.793 696.98 302.086 697.919 302.086C699.268 302.086 700.221 301.521 700.779 300.392H703.485C703.118 301.507 702.451 302.423 701.483 303.142C700.529 303.846 699.341 304.198 697.919 304.198C696.76 304.198 695.719 303.941 694.795 303.428C693.885 302.9 693.167 302.167 692.639 301.228C692.125 300.275 691.869 299.175 691.869 297.928C691.869 296.681 692.118 295.589 692.617 294.65C693.13 293.697 693.841 292.963 694.751 292.45C695.675 291.937 696.731 291.68 697.919 291.68C699.063 291.68 700.082 291.929 700.977 292.428C701.871 292.927 702.568 293.631 703.067 294.54C703.565 295.435 703.815 296.469 703.815 297.642ZM701.197 296.85C701.182 295.926 700.852 295.185 700.207 294.628C699.561 294.071 698.762 293.792 697.809 293.792C696.943 293.792 696.203 294.071 695.587 294.628C694.971 295.171 694.604 295.911 694.487 296.85H701.197Z" fill="black"/>
<path d="M709.209 293.924V300.634C709.209 301.089 709.311 301.419 709.517 301.624C709.737 301.815 710.103 301.91 710.617 301.91H712.157V304H710.177C709.047 304 708.182 303.736 707.581 303.208C706.979 302.68 706.679 301.822 706.679 300.634V293.924H705.249V291.878H706.679V288.864H709.209V291.878H712.157V293.924H709.209Z" fill="black"/>
<path d="M715.48 304.154C715.026 304.154 714.644 304 714.336 303.692C714.028 303.384 713.874 303.003 713.874 302.548C713.874 302.093 714.028 301.712 714.336 301.404C714.644 301.096 715.026 300.942 715.48 300.942C715.92 300.942 716.294 301.096 716.602 301.404C716.91 301.712 717.064 302.093 717.064 302.548C717.064 303.003 716.91 303.384 716.602 303.692C716.294 304 715.92 304.154 715.48 304.154Z" fill="black"/>
<path d="M735.368 288.71V290.756H731.298V304H728.79V290.756H724.698V288.71H735.368Z" fill="black"/>
<path d="M743.166 304.198C742.022 304.198 740.988 303.941 740.064 303.428C739.14 302.9 738.414 302.167 737.886 301.228C737.358 300.275 737.094 299.175 737.094 297.928C737.094 296.696 737.365 295.603 737.908 294.65C738.45 293.697 739.191 292.963 740.13 292.45C741.068 291.937 742.117 291.68 743.276 291.68C744.434 291.68 745.483 291.937 746.422 292.45C747.36 292.963 748.101 293.697 748.644 294.65C749.186 295.603 749.458 296.696 749.458 297.928C749.458 299.16 749.179 300.253 748.622 301.206C748.064 302.159 747.302 302.9 746.334 303.428C745.38 303.941 744.324 304.198 743.166 304.198ZM743.166 302.02C743.811 302.02 744.412 301.866 744.97 301.558C745.542 301.25 746.004 300.788 746.356 300.172C746.708 299.556 746.884 298.808 746.884 297.928C746.884 297.048 746.715 296.307 746.378 295.706C746.04 295.09 745.593 294.628 745.036 294.32C744.478 294.012 743.877 293.858 743.232 293.858C742.586 293.858 741.985 294.012 741.428 294.32C740.885 294.628 740.452 295.09 740.13 295.706C739.807 296.307 739.646 297.048 739.646 297.928C739.646 299.233 739.976 300.245 740.636 300.964C741.31 301.668 742.154 302.02 743.166 302.02Z" fill="black"/>
<path d="M754.445 293.638C754.812 293.022 755.296 292.545 755.897 292.208C756.513 291.856 757.239 291.68 758.075 291.68V294.276H757.437C756.454 294.276 755.706 294.525 755.193 295.024C754.694 295.523 754.445 296.388 754.445 297.62V304H751.937V291.878H754.445V293.638Z" fill="black"/>
<path d="M763.306 293.924V300.634C763.306 301.089 763.409 301.419 763.614 301.624C763.834 301.815 764.201 301.91 764.714 301.91H766.254V304H764.274C763.145 304 762.28 303.736 761.678 303.208C761.077 302.68 760.776 301.822 760.776 300.634V293.924H759.346V291.878H760.776V288.864H763.306V291.878H766.254V293.924H763.306Z" fill="black"/>
<path d="M773.824 304.198C772.68 304.198 771.646 303.941 770.722 303.428C769.798 302.9 769.072 302.167 768.544 301.228C768.016 300.275 767.752 299.175 767.752 297.928C767.752 296.696 768.023 295.603 768.566 294.65C769.109 293.697 769.849 292.963 770.788 292.45C771.727 291.937 772.775 291.68 773.934 291.68C775.093 291.68 776.141 291.937 777.08 292.45C778.019 292.963 778.759 293.697 779.302 294.65C779.845 295.603 780.116 296.696 780.116 297.928C780.116 299.16 779.837 300.253 779.28 301.206C778.723 302.159 777.96 302.9 776.992 303.428C776.039 303.941 774.983 304.198 773.824 304.198ZM773.824 302.02C774.469 302.02 775.071 301.866 775.628 301.558C776.2 301.25 776.662 300.788 777.014 300.172C777.366 299.556 777.542 298.808 777.542 297.928C777.542 297.048 777.373 296.307 777.036 295.706C776.699 295.09 776.251 294.628 775.694 294.32C775.137 294.012 774.535 293.858 773.89 293.858C773.245 293.858 772.643 294.012 772.086 294.32C771.543 294.628 771.111 295.09 770.788 295.706C770.465 296.307 770.304 297.048 770.304 297.928C770.304 299.233 770.634 300.245 771.294 300.964C771.969 301.668 772.812 302.02 773.824 302.02Z" fill="black"/>
<path d="M785.103 293.638C785.47 293.022 785.954 292.545 786.555 292.208C787.171 291.856 787.897 291.68 788.733 291.68V294.276H788.095C787.113 294.276 786.365 294.525 785.851 295.024C785.353 295.523 785.103 296.388 785.103 297.62V304H782.595V291.878H785.103V293.638Z" fill="black"/>
<path d="M428.814 330.884C428.814 329.667 429.063 328.589 429.562 327.65C430.075 326.711 430.765 325.985 431.63 325.472C432.51 324.944 433.478 324.68 434.534 324.68C435.487 324.68 436.316 324.871 437.02 325.252C437.739 325.619 438.311 326.081 438.736 326.638V324.878H441.266V337H438.736V335.196C438.311 335.768 437.731 336.245 436.998 336.626C436.265 337.007 435.429 337.198 434.49 337.198C433.449 337.198 432.495 336.934 431.63 336.406C430.765 335.863 430.075 335.115 429.562 334.162C429.063 333.194 428.814 332.101 428.814 330.884ZM438.736 330.928C438.736 330.092 438.56 329.366 438.208 328.75C437.871 328.134 437.423 327.665 436.866 327.342C436.309 327.019 435.707 326.858 435.062 326.858C434.417 326.858 433.815 327.019 433.258 327.342C432.701 327.65 432.246 328.112 431.894 328.728C431.557 329.329 431.388 330.048 431.388 330.884C431.388 331.72 431.557 332.453 431.894 333.084C432.246 333.715 432.701 334.199 433.258 334.536C433.83 334.859 434.431 335.02 435.062 335.02C435.707 335.02 436.309 334.859 436.866 334.536C437.423 334.213 437.871 333.744 438.208 333.128C438.56 332.497 438.736 331.764 438.736 330.928Z" fill="black"/>
<path d="M455.67 330.642C455.67 331.097 455.641 331.507 455.582 331.874H446.32C446.393 332.842 446.753 333.619 447.398 334.206C448.043 334.793 448.835 335.086 449.774 335.086C451.123 335.086 452.077 334.521 452.634 333.392H455.34C454.973 334.507 454.306 335.423 453.338 336.142C452.385 336.846 451.197 337.198 449.774 337.198C448.615 337.198 447.574 336.941 446.65 336.428C445.741 335.9 445.022 335.167 444.494 334.228C443.981 333.275 443.724 332.175 443.724 330.928C443.724 329.681 443.973 328.589 444.472 327.65C444.985 326.697 445.697 325.963 446.606 325.45C447.53 324.937 448.586 324.68 449.774 324.68C450.918 324.68 451.937 324.929 452.832 325.428C453.727 325.927 454.423 326.631 454.922 327.54C455.421 328.435 455.67 329.469 455.67 330.642ZM453.052 329.85C453.037 328.926 452.707 328.185 452.062 327.628C451.417 327.071 450.617 326.792 449.664 326.792C448.799 326.792 448.058 327.071 447.442 327.628C446.826 328.171 446.459 328.911 446.342 329.85H453.052Z" fill="black"/>
<path d="M464.254 324.68C465.208 324.68 466.058 324.878 466.806 325.274C467.569 325.67 468.163 326.257 468.588 327.034C469.014 327.811 469.226 328.75 469.226 329.85V337H466.74V330.224C466.74 329.139 466.469 328.31 465.926 327.738C465.384 327.151 464.643 326.858 463.704 326.858C462.766 326.858 462.018 327.151 461.46 327.738C460.918 328.31 460.646 329.139 460.646 330.224V337H458.138V324.878H460.646V326.264C461.057 325.765 461.578 325.377 462.208 325.098C462.854 324.819 463.536 324.68 464.254 324.68Z" fill="black"/>
<path d="M483.535 330.642C483.535 331.097 483.506 331.507 483.447 331.874H474.185C474.259 332.842 474.618 333.619 475.263 334.206C475.909 334.793 476.701 335.086 477.639 335.086C478.989 335.086 479.942 334.521 480.499 333.392H483.205C482.839 334.507 482.171 335.423 481.203 336.142C480.25 336.846 479.062 337.198 477.639 337.198C476.481 337.198 475.439 336.941 474.515 336.428C473.606 335.9 472.887 335.167 472.359 334.228C471.846 333.275 471.589 332.175 471.589 330.928C471.589 329.681 471.839 328.589 472.337 327.65C472.851 326.697 473.562 325.963 474.471 325.45C475.395 324.937 476.451 324.68 477.639 324.68C478.783 324.68 479.803 324.929 480.697 325.428C481.592 325.927 482.289 326.631 482.787 327.54C483.286 328.435 483.535 329.469 483.535 330.642ZM480.917 329.85C480.903 328.926 480.573 328.185 479.927 327.628C479.282 327.071 478.483 326.792 477.529 326.792C476.664 326.792 475.923 327.071 475.307 327.628C474.691 328.171 474.325 328.911 474.207 329.85H480.917Z" fill="black"/>
<path d="M485.167 330.884C485.167 329.667 485.417 328.589 485.915 327.65C486.429 326.711 487.118 325.985 487.983 325.472C488.863 324.944 489.831 324.68 490.887 324.68C491.841 324.68 492.669 324.871 493.373 325.252C494.092 325.619 494.664 326.081 495.089 326.638V324.878H497.619V337H495.089V335.196C494.664 335.768 494.085 336.245 493.351 336.626C492.618 337.007 491.782 337.198 490.843 337.198C489.802 337.198 488.849 336.934 487.983 336.406C487.118 335.863 486.429 335.115 485.915 334.162C485.417 333.194 485.167 332.101 485.167 330.884ZM495.089 330.928C495.089 330.092 494.913 329.366 494.561 328.75C494.224 328.134 493.777 327.665 493.219 327.342C492.662 327.019 492.061 326.858 491.415 326.858C490.77 326.858 490.169 327.019 489.611 327.342C489.054 327.65 488.599 328.112 488.247 328.728C487.91 329.329 487.741 330.048 487.741 330.884C487.741 331.72 487.91 332.453 488.247 333.084C488.599 333.715 489.054 334.199 489.611 334.536C490.183 334.859 490.785 335.02 491.415 335.02C492.061 335.02 492.662 334.859 493.219 334.536C493.777 334.213 494.224 333.744 494.561 333.128C494.913 332.497 495.089 331.764 495.089 330.928Z" fill="black"/>
<path d="M507.03 324.68C507.983 324.68 508.834 324.878 509.582 325.274C510.344 325.67 510.938 326.257 511.364 327.034C511.789 327.811 512.002 328.75 512.002 329.85V337H509.516V330.224C509.516 329.139 509.244 328.31 508.702 327.738C508.159 327.151 507.418 326.858 506.48 326.858C505.541 326.858 504.793 327.151 504.236 327.738C503.693 328.31 503.422 329.139 503.422 330.224V337H500.914V324.878H503.422V326.264C503.832 325.765 504.353 325.377 504.984 325.098C505.629 324.819 506.311 324.68 507.03 324.68Z" fill="black"/>
<path d="M520.08 330.884C520.08 329.667 520.329 328.589 520.828 327.65C521.341 326.711 522.03 325.985 522.896 325.472C523.776 324.944 524.751 324.68 525.822 324.68C526.614 324.68 527.391 324.856 528.154 325.208C528.931 325.545 529.547 326 530.002 326.572V320.72H532.532V337H530.002V335.174C529.591 335.761 529.019 336.245 528.286 336.626C527.567 337.007 526.738 337.198 525.8 337.198C524.744 337.198 523.776 336.934 522.896 336.406C522.03 335.863 521.341 335.115 520.828 334.162C520.329 333.194 520.08 332.101 520.08 330.884ZM530.002 330.928C530.002 330.092 529.826 329.366 529.474 328.75C529.136 328.134 528.689 327.665 528.132 327.342C527.574 327.019 526.973 326.858 526.328 326.858C525.682 326.858 525.081 327.019 524.524 327.342C523.966 327.65 523.512 328.112 523.16 328.728C522.822 329.329 522.654 330.048 522.654 330.884C522.654 331.72 522.822 332.453 523.16 333.084C523.512 333.715 523.966 334.199 524.524 334.536C525.096 334.859 525.697 335.02 526.328 335.02C526.973 335.02 527.574 334.859 528.132 334.536C528.689 334.213 529.136 333.744 529.474 333.128C529.826 332.497 530.002 331.764 530.002 330.928Z" fill="black"/>
<path d="M546.804 324.878V337H544.296V335.57C543.9 336.069 543.379 336.465 542.734 336.758C542.103 337.037 541.428 337.176 540.71 337.176C539.756 337.176 538.898 336.978 538.136 336.582C537.388 336.186 536.794 335.599 536.354 334.822C535.928 334.045 535.716 333.106 535.716 332.006V324.878H538.202V331.632C538.202 332.717 538.473 333.553 539.016 334.14C539.558 334.712 540.299 334.998 541.238 334.998C542.176 334.998 542.917 334.712 543.46 334.14C544.017 333.553 544.296 332.717 544.296 331.632V324.878H546.804Z" fill="black"/>
<path d="M551.389 323.272C550.934 323.272 550.553 323.118 550.245 322.81C549.937 322.502 549.783 322.121 549.783 321.666C549.783 321.211 549.937 320.83 550.245 320.522C550.553 320.214 550.934 320.06 551.389 320.06C551.829 320.06 552.203 320.214 552.511 320.522C552.819 320.83 552.973 321.211 552.973 321.666C552.973 322.121 552.819 322.502 552.511 322.81C552.203 323.118 551.829 323.272 551.389 323.272ZM552.621 324.878V337H550.113V324.878H552.621Z" fill="black"/>
<path d="M560.314 337.198C559.36 337.198 558.502 337.029 557.74 336.692C556.992 336.34 556.398 335.871 555.958 335.284C555.518 334.683 555.283 334.015 555.254 333.282H557.85C557.894 333.795 558.136 334.228 558.576 334.58C559.03 334.917 559.595 335.086 560.27 335.086C560.974 335.086 561.516 334.954 561.898 334.69C562.294 334.411 562.492 334.059 562.492 333.634C562.492 333.179 562.272 332.842 561.832 332.622C561.406 332.402 560.724 332.16 559.786 331.896C558.876 331.647 558.136 331.405 557.564 331.17C556.992 330.935 556.493 330.576 556.068 330.092C555.657 329.608 555.452 328.97 555.452 328.178C555.452 327.533 555.642 326.946 556.024 326.418C556.405 325.875 556.948 325.45 557.652 325.142C558.37 324.834 559.192 324.68 560.116 324.68C561.494 324.68 562.602 325.032 563.438 325.736C564.288 326.425 564.743 327.371 564.802 328.574H562.294C562.25 328.031 562.03 327.599 561.634 327.276C561.238 326.953 560.702 326.792 560.028 326.792C559.368 326.792 558.862 326.917 558.51 327.166C558.158 327.415 557.982 327.745 557.982 328.156C557.982 328.479 558.099 328.75 558.334 328.97C558.568 329.19 558.854 329.366 559.192 329.498C559.529 329.615 560.028 329.769 560.688 329.96C561.568 330.195 562.286 330.437 562.844 330.686C563.416 330.921 563.907 331.273 564.318 331.742C564.728 332.211 564.941 332.835 564.956 333.612C564.956 334.301 564.765 334.917 564.384 335.46C564.002 336.003 563.46 336.428 562.756 336.736C562.066 337.044 561.252 337.198 560.314 337.198Z" fill="black"/>
<path d="M575.888 320.72V337H573.38V320.72H575.888Z" fill="black"/>
<path d="M590.291 330.642C590.291 331.097 590.262 331.507 590.203 331.874H580.941C581.015 332.842 581.374 333.619 582.019 334.206C582.665 334.793 583.457 335.086 584.395 335.086C585.745 335.086 586.698 334.521 587.255 333.392H589.961C589.595 334.507 588.927 335.423 587.959 336.142C587.006 336.846 585.818 337.198 584.395 337.198C583.237 337.198 582.195 336.941 581.271 336.428C580.362 335.9 579.643 335.167 579.115 334.228C578.602 333.275 578.345 332.175 578.345 330.928C578.345 329.681 578.595 328.589 579.093 327.65C579.607 326.697 580.318 325.963 581.227 325.45C582.151 324.937 583.207 324.68 584.395 324.68C585.539 324.68 586.559 324.929 587.453 325.428C588.348 325.927 589.045 326.631 589.543 327.54C590.042 328.435 590.291 329.469 590.291 330.642ZM587.673 329.85C587.659 328.926 587.329 328.185 586.683 327.628C586.038 327.071 585.239 326.792 584.285 326.792C583.42 326.792 582.679 327.071 582.063 327.628C581.447 328.171 581.081 328.911 580.963 329.85H587.673Z" fill="black"/>
<path d="M598.017 337.198C596.873 337.198 595.839 336.941 594.915 336.428C593.991 335.9 593.265 335.167 592.737 334.228C592.209 333.275 591.945 332.175 591.945 330.928C591.945 329.696 592.217 328.603 592.759 327.65C593.302 326.697 594.043 325.963 594.981 325.45C595.92 324.937 596.969 324.68 598.127 324.68C599.286 324.68 600.335 324.937 601.273 325.45C602.212 325.963 602.953 326.697 603.495 327.65C604.038 328.603 604.309 329.696 604.309 330.928C604.309 332.16 604.031 333.253 603.473 334.206C602.916 335.159 602.153 335.9 601.185 336.428C600.232 336.941 599.176 337.198 598.017 337.198ZM598.017 335.02C598.663 335.02 599.264 334.866 599.821 334.558C600.393 334.25 600.855 333.788 601.207 333.172C601.559 332.556 601.735 331.808 601.735 330.928C601.735 330.048 601.567 329.307 601.229 328.706C600.892 328.09 600.445 327.628 599.887 327.32C599.33 327.012 598.729 326.858 598.083 326.858C597.438 326.858 596.837 327.012 596.279 327.32C595.737 327.628 595.304 328.09 594.981 328.706C594.659 329.307 594.497 330.048 594.497 330.928C594.497 332.233 594.827 333.245 595.487 333.964C596.162 334.668 597.005 335.02 598.017 335.02Z" fill="black"/>
<path d="M613.779 323.272C613.325 323.272 612.943 323.118 612.635 322.81C612.327 322.502 612.173 322.121 612.173 321.666C612.173 321.211 612.327 320.83 612.635 320.522C612.943 320.214 613.325 320.06 613.779 320.06C614.219 320.06 614.593 320.214 614.901 320.522C615.209 320.83 615.363 321.211 615.363 321.666C615.363 322.121 615.209 322.502 614.901 322.81C614.593 323.118 614.219 323.272 613.779 323.272ZM615.011 324.878V337H612.503V324.878H615.011Z" fill="black"/>
<path d="M624.42 324.68C625.374 324.68 626.224 324.878 626.972 325.274C627.735 325.67 628.329 326.257 628.754 327.034C629.18 327.811 629.392 328.75 629.392 329.85V337H626.906V330.224C626.906 329.139 626.635 328.31 626.092 327.738C625.55 327.151 624.809 326.858 623.87 326.858C622.932 326.858 622.184 327.151 621.626 327.738C621.084 328.31 620.812 329.139 620.812 330.224V337H618.304V324.878H620.812V326.264C621.223 325.765 621.744 325.377 622.374 325.098C623.02 324.819 623.702 324.68 624.42 324.68Z" fill="black"/>
<path d="M633.603 337.154C633.149 337.154 632.767 337 632.459 336.692C632.151 336.384 631.997 336.003 631.997 335.548C631.997 335.093 632.151 334.712 632.459 334.404C632.767 334.096 633.149 333.942 633.603 333.942C634.043 333.942 634.417 334.096 634.725 334.404C635.033 334.712 635.187 335.093 635.187 335.548C635.187 336.003 635.033 336.384 634.725 336.692C634.417 337 634.043 337.154 633.603 337.154Z" fill="black"/>
<path d="M435.524 164.872V190H430.484V164.872H435.524Z" fill="black"/>
<path d="M465.271 169.768C467.719 169.768 469.687 170.524 471.175 172.036C472.687 173.524 473.443 175.612 473.443 178.3V190H468.403V178.984C468.403 177.424 468.007 176.236 467.215 175.42C466.423 174.58 465.343 174.16 463.975 174.16C462.607 174.16 461.515 174.58 460.699 175.42C459.907 176.236 459.511 177.424 459.511 178.984V190H454.471V178.984C454.471 177.424 454.075 176.236 453.283 175.42C452.491 174.58 451.411 174.16 450.043 174.16C448.651 174.16 447.547 174.58 446.731 175.42C445.939 176.236 445.543 177.424 445.543 178.984V190H440.503V170.056H445.543V172.468C446.191 171.628 447.019 170.968 448.027 170.488C449.059 170.008 450.187 169.768 451.411 169.768C452.971 169.768 454.363 170.104 455.587 170.776C456.811 171.424 457.759 172.36 458.431 173.584C459.079 172.432 460.015 171.508 461.239 170.812C462.487 170.116 463.831 169.768 465.271 169.768Z" fill="black"/>
<path d="M476.93 179.956C476.93 177.94 477.326 176.152 478.118 174.592C478.934 173.032 480.026 171.832 481.394 170.992C482.786 170.152 484.334 169.732 486.038 169.732C487.526 169.732 488.822 170.032 489.926 170.632C491.054 171.232 491.954 171.988 492.626 172.9V170.056H497.702V190H492.626V187.084C491.978 188.02 491.078 188.8 489.926 189.424C488.798 190.024 487.49 190.324 486.002 190.324C484.322 190.324 482.786 189.892 481.394 189.028C480.026 188.164 478.934 186.952 478.118 185.392C477.326 183.808 476.93 181.996 476.93 179.956ZM492.626 180.028C492.626 178.804 492.386 177.76 491.906 176.896C491.426 176.008 490.778 175.336 489.962 174.88C489.146 174.4 488.27 174.16 487.334 174.16C486.398 174.16 485.534 174.388 484.742 174.844C483.95 175.3 483.302 175.972 482.798 176.86C482.318 177.724 482.078 178.756 482.078 179.956C482.078 181.156 482.318 182.212 482.798 183.124C483.302 184.012 483.95 184.696 484.742 185.176C485.558 185.656 486.422 185.896 487.334 185.896C488.27 185.896 489.146 185.668 489.962 185.212C490.778 184.732 491.426 184.06 491.906 183.196C492.386 182.308 492.626 181.252 492.626 180.028Z" fill="black"/>
<path d="M510.437 169.732C511.925 169.732 513.233 170.032 514.361 170.632C515.489 171.208 516.377 171.964 517.025 172.9V170.056H522.101V190.144C522.101 191.992 521.729 193.636 520.985 195.076C520.241 196.54 519.125 197.692 517.637 198.532C516.149 199.396 514.349 199.828 512.237 199.828C509.405 199.828 507.077 199.168 505.253 197.848C503.453 196.528 502.433 194.728 502.193 192.448H507.197C507.461 193.36 508.025 194.08 508.889 194.608C509.777 195.16 510.845 195.436 512.093 195.436C513.557 195.436 514.745 194.992 515.657 194.104C516.569 193.24 517.025 191.92 517.025 190.144V187.048C516.377 187.984 515.477 188.764 514.325 189.388C513.197 190.012 511.901 190.324 510.437 190.324C508.757 190.324 507.221 189.892 505.829 189.028C504.437 188.164 503.333 186.952 502.517 185.392C501.725 183.808 501.329 181.996 501.329 179.956C501.329 177.94 501.725 176.152 502.517 174.592C503.333 173.032 504.425 171.832 505.793 170.992C507.185 170.152 508.733 169.732 510.437 169.732ZM517.025 180.028C517.025 178.804 516.785 177.76 516.305 176.896C515.825 176.008 515.177 175.336 514.361 174.88C513.545 174.4 512.669 174.16 511.733 174.16C510.797 174.16 509.933 174.388 509.141 174.844C508.349 175.3 507.701 175.972 507.197 176.86C506.717 177.724 506.477 178.756 506.477 179.956C506.477 181.156 506.717 182.212 507.197 183.124C507.701 184.012 508.349 184.696 509.141 185.176C509.957 185.656 510.821 185.896 511.733 185.896C512.669 185.896 513.545 185.668 514.361 185.212C515.177 184.732 515.825 184.06 516.305 183.196C516.785 182.308 517.025 181.252 517.025 180.028Z" fill="black"/>
<path d="M545.563 179.596C545.563 180.316 545.515 180.964 545.419 181.54H530.839C530.959 182.98 531.463 184.108 532.351 184.924C533.239 185.74 534.331 186.148 535.627 186.148C537.499 186.148 538.831 185.344 539.623 183.736H545.059C544.483 185.656 543.379 187.24 541.747 188.488C540.115 189.712 538.111 190.324 535.735 190.324C533.815 190.324 532.087 189.904 530.551 189.064C529.039 188.2 527.851 186.988 526.987 185.428C526.147 183.868 525.727 182.068 525.727 180.028C525.727 177.964 526.147 176.152 526.987 174.592C527.827 173.032 529.003 171.832 530.515 170.992C532.027 170.152 533.767 169.732 535.735 169.732C537.631 169.732 539.323 170.14 540.811 170.956C542.323 171.772 543.487 172.936 544.303 174.448C545.143 175.936 545.563 177.652 545.563 179.596ZM540.343 178.156C540.319 176.86 539.851 175.828 538.939 175.06C538.027 174.268 536.911 173.872 535.591 173.872C534.343 173.872 533.287 174.256 532.423 175.024C531.583 175.768 531.067 176.812 530.875 178.156H540.343Z" fill="black"/>
<defs>
<filter id="filter0_b" x="161" y="67" width="81" height="81" filterUnits="userSpaceOnUse" color-interpolation-filters="sRGB">
<feFlood flood-opacity="0" result="BackgroundImageFix"/>
<feGaussianBlur in="BackgroundImage" stdDeviation="2.5"/>
<feComposite in2="SourceAlpha" operator="in" result="effect1_backgroundBlur"/>
<feBlend mode="normal" in="SourceGraphic" in2="effect1_backgroundBlur" result="shape"/>
</filter>
<filter id="filter1_b" x="1245" y="67" width="81" height="81" filterUnits="userSpaceOnUse" color-interpolation-filters="sRGB">
<feFlood flood-opacity="0" result="BackgroundImageFix"/>
<feGaussianBlur in="BackgroundImage" stdDeviation="2.5"/>
<feComposite in2="SourceAlpha" operator="in" result="effect1_backgroundBlur"/>
<feBlend mode="normal" in="SourceGraphic" in2="effect1_backgroundBlur" result="shape"/>
</filter>
<filter id="filter2_bd" x="397" y="0" width="151" height="151" filterUnits="userSpaceOnUse" color-interpolation-filters="sRGB">
<feFlood flood-opacity="0" result="BackgroundImageFix"/>
<feGaussianBlur in="BackgroundImage" stdDeviation="1.5"/>
<feComposite in2="SourceAlpha" operator="in" result="effect1_backgroundBlur"/>
<feColorMatrix in="SourceAlpha" type="matrix" values="0 0 0 0 0 0 0 0 0 0 0 0 0 0 0 0 0 0 127 0" result="hardAlpha"/>
<feMorphology radius="1" operator="dilate" in="SourceAlpha" result="effect2_dropShadow"/>
<feOffset/>
<feGaussianBlur stdDeviation="15"/>
<feComposite in2="hardAlpha" operator="out"/>
<feColorMatrix type="matrix" values="0 0 0 0 0.671441 0 0 0 0 0.724147 0 0 0 0 0.729167 0 0 0 0.5 0"/>
<feBlend mode="normal" in2="effect1_backgroundBlur" result="effect2_dropShadow"/>
<feBlend mode="normal" in="SourceGraphic" in2="effect2_dropShadow" result="shape"/>
</filter>
<filter id="filter3_b" x="974" y="35" width="81" height="81" filterUnits="userSpaceOnUse" color-interpolation-filters="sRGB">
<feFlood flood-opacity="0" result="BackgroundImageFix"/>
<feGaussianBlur in="BackgroundImage" stdDeviation="2.5"/>
<feComposite in2="SourceAlpha" operator="in" result="effect1_backgroundBlur"/>
<feBlend mode="normal" in="SourceGraphic" in2="effect1_backgroundBlur" result="shape"/>
</filter>
<filter id="filter4_b" x="703" y="31" width="81" height="81" filterUnits="userSpaceOnUse" color-interpolation-filters="sRGB">
<feFlood flood-opacity="0" result="BackgroundImageFix"/>
<feGaussianBlur in="BackgroundImage" stdDeviation="2.5"/>
<feComposite in2="SourceAlpha" operator="in" result="effect1_backgroundBlur"/>
<feBlend mode="normal" in="SourceGraphic" in2="effect1_backgroundBlur" result="shape"/>
</filter>
<linearGradient id="paint0_linear" x1="428" y1="50.5" x2="498.5" y2="101.5" gradientUnits="userSpaceOnUse">
<stop/>
<stop offset="0.634292" stop-color="#1E46F2"/>
</linearGradient>
<linearGradient id="paint1_linear" x1="443.042" y1="75.5" x2="508.305" y2="76.0435" gradientUnits="userSpaceOnUse">
<stop stop-color="#6A81E6"/>
<stop offset="0.33664" stop-color="#4765E4"/>
<stop offset="0.633862" stop-color="#2F52E9"/>
<stop offset="1" stop-color="#1537C6"/>
</linearGradient>
</defs>
</svg>
