<svg width="29" height="18" viewBox="0 0 29 18" fill="none" xmlns="http://www.w3.org/2000/svg">
<path fill-rule="evenodd" clip-rule="evenodd" d="M0 9C0 8.65907 0.135435 8.3321 0.37651 8.09103C0.617584 7.84995 0.944551 7.71452 1.28548 7.71452H24.1791L18.6592 2.19723C18.4178 1.95585 18.2822 1.62847 18.2822 1.28711C18.2822 0.945745 18.4178 0.618364 18.6592 0.376985C18.9006 0.135606 19.228 0 19.5693 0C19.9107 0 20.2381 0.135606 20.4795 0.376985L28.1924 8.08988C28.3121 8.20929 28.407 8.35114 28.4719 8.50732C28.5367 8.66349 28.57 8.83091 28.57 9C28.57 9.16909 28.5367 9.33651 28.4719 9.49268C28.407 9.64886 28.3121 9.79071 28.1924 9.91012L20.4795 17.623C20.2381 17.8644 19.9107 18 19.5693 18C19.228 18 18.9006 17.8644 18.6592 17.623C18.4178 17.3816 18.2822 17.0543 18.2822 16.7129C18.2822 16.3715 18.4178 16.0442 18.6592 15.8028L24.1791 10.2855H1.28548C0.944551 10.2855 0.617584 10.15 0.37651 9.90897C0.135435 9.6679 0 9.34093 0 9Z" fill="black"/>
</svg>
